<?xml version='1.0' encoding='utf-8'?>
<svg xmlns="http://www.w3.org/2000/svg" width="1079" height="1079" viewBox="215.9 -41.8 1078.9 1078.9" version="1.1"><path d="" stroke="none" fill="#5a532e" fill-rule="evenodd" /><path d="M 391.83 325.91 C 391.69, 326.31, 385.26, 327.0, 380.35, 327.16 C 375.45, 327.31, 369.5, 328.0, 369.74, 328.38 C 369.98, 328.77, 368.54, 329.01, 367.17, 328.81 C 365.8, 328.61, 363.89, 328.68, 363.77, 328.93 C 363.36, 329.78, 349.7, 332.93, 348.81, 332.38 C 348.23, 332.02, 348.08, 332.32, 348.5, 333.0 C 348.98, 333.78, 348.44, 334.09, 347.15, 333.75 C 346.04, 333.46, 345.32, 333.71, 345.66, 334.26 C 346.0, 334.81, 345.51, 335.02, 344.66, 334.7 C 343.93, 334.42, 343.0, 334.66, 343.0, 335.14 C 343.0, 335.61, 342.16, 335.89, 341.5, 335.64 C 340.84, 335.39, 340.0, 335.57, 340.0, 335.96 C 340.0, 336.36, 338.74, 337.25, 337.75, 337.56 C 336.76, 337.86, 331.21, 340.37, 327.84, 342.05 C 324.47, 343.72, 319.76, 345.47, 319.43, 345.17 C 319.1, 344.88, 319.03, 345.12, 319.31, 345.61 C 319.61, 346.13, 317.83, 347.68, 315.97, 348.51 C 314.22, 349.3, 312.0, 350.74, 312.0, 351.08 C 312.0, 351.83, 307.64, 353.44, 306.5, 353.12 C 306.06, 352.99, 305.91, 353.25, 306.24, 353.57 C 306.79, 354.12, 299.08, 360.5, 297.86, 360.5 C 297.56, 360.5, 296.7, 361.01, 296.33, 361.41 C 295.94, 361.84, 296.29, 361.91, 297.0, 361.54 C 297.66, 361.19, 296.28, 362.64, 294.53, 364.12 C 292.78, 365.61, 289.98, 367.31, 289.53, 367.17 C 289.08, 367.02, 288.93, 367.26, 289.26, 367.6 C 289.98, 368.31, 284.83, 374.01, 283.96, 373.48 C 283.64, 373.28, 282.53, 373.86, 281.99, 374.51 C 281.45, 375.17, 281.14, 376.0, 281.44, 376.0 C 281.74, 376.0, 278.84, 380.06, 276.26, 383.25 C 273.67, 386.44, 268.5, 393.16, 267.02, 395.25 C 265.54, 397.34, 263.16, 400.0, 262.77, 400.0 C 262.38, 400.0, 262.21, 400.53, 262.46, 400.94 C 262.72, 401.35, 262.05, 402.45, 261.27, 402.91 C 260.49, 403.36, 259.93, 403.96, 260.28, 403.97 C 261.27, 404.01, 257.82, 410.0, 256.81, 410.0 C 256.31, 410.0, 256.01, 410.35, 256.29, 410.62 C 256.56, 410.89, 255.34, 414.39, 254.1, 416.87 C 252.86, 419.35, 250.3, 425.16, 249.51, 427.25 C 248.73, 429.34, 247.21, 432.0, 246.81, 432.0 C 246.4, 432.0, 246.15, 432.44, 246.37, 432.78 C 246.85, 433.57, 241.42, 452.08, 240.86, 451.52 C 240.63, 451.3, 240.37, 451.99, 240.38, 452.75 C 240.46, 455.76, 238.52, 465.0, 237.81, 465.0 C 237.4, 465.0, 237.22, 465.55, 237.49, 465.98 C 237.76, 466.41, 237.16, 474.11, 236.43, 479.73 C 235.46, 487.16, 235.0, 498.36, 235.34, 506.5 C 235.95, 521.49, 237.27, 525.23, 241.75, 524.73 C 245.39, 524.32, 250.22, 521.03, 248.25, 520.3 C 247.7, 520.09, 247.0, 519.01, 247.0, 518.36 C 247.0, 517.71, 247.56, 517.23, 248.0, 517.5 C 248.46, 517.79, 248.96, 516.61, 248.93, 515.31 C 248.88, 513.33, 248.6, 513.09, 248.0, 514.5 C 247.58, 515.48, 247.16, 508.88, 247.17, 501.5 C 247.18, 494.9, 247.58, 487.86, 247.88, 488.93 C 248.19, 490.04, 248.56, 487.04, 248.55, 483.43 C 248.55, 475.86, 252.13, 454.96, 253.3, 455.69 C 253.74, 455.96, 253.94, 455.72, 253.66, 455.26 C 253.04, 454.25, 254.15, 447.98, 254.87, 448.42 C 255.15, 448.58, 255.6, 447.03, 255.69, 445.65 C 256.03, 439.86, 271.49, 407.61, 273.41, 408.7 C 273.89, 408.97, 274.09, 408.87, 273.77, 408.51 C 272.96, 407.62, 277.34, 400.09, 278.32, 400.69 C 278.75, 400.96, 278.97, 400.76, 278.7, 400.32 C 277.67, 398.66, 299.66, 373.67, 301.27, 374.67 C 301.74, 374.96, 301.93, 374.7, 301.61, 374.18 C 298.47, 369.09, 363.29, 338.01, 372.19, 340.34 C 372.99, 340.55, 373.74, 340.39, 373.53, 340.05 C 373.08, 339.31, 387.52, 338.0, 395.9, 338.01 C 400.14, 338.02, 402.84, 338.46, 402.0, 339.01 C 401.19, 339.53, 403.46, 339.68, 406.91, 339.33 C 409.99, 339.02, 413.02, 339.16, 412.74, 339.61 C 412.48, 340.04, 414.35, 340.33, 416.22, 340.15 C 418.1, 339.97, 419.95, 340.26, 419.69, 340.7 C 419.42, 341.13, 420.77, 341.39, 422.19, 341.19 C 423.89, 340.94, 424.97, 341.24, 424.59, 341.85 C 424.24, 342.41, 424.62, 342.7, 425.34, 342.42 C 427.61, 341.55, 454.27, 350.75, 453.43, 352.11 C 453.19, 352.49, 453.86, 352.61, 454.61, 352.32 C 455.62, 351.93, 455.99, 352.21, 455.51, 352.99 C 455.07, 353.69, 455.23, 353.97, 455.86, 353.59 C 456.99, 352.89, 468.35, 359.65, 475.72, 365.42 C 478.71, 367.76, 485.44, 372.0, 487.75, 372.99 C 490.12, 374.01, 492.62, 375.8, 492.33, 376.27 C 492.05, 376.73, 492.28, 376.95, 492.74, 376.66 C 493.79, 376.01, 503.05, 381.1, 502.49, 382.02 C 502.26, 382.39, 502.62, 383.27, 503.14, 383.58 C 503.72, 383.95, 503.95, 383.73, 503.6, 383.15 C 503.28, 382.65, 503.39, 382.0, 503.79, 382.0 C 504.69, 382.0, 507.85, 385.43, 507.93, 386.5 C 507.96, 386.94, 508.45, 387.5, 508.81, 387.5 C 511.58, 387.5, 526.54, 406.04, 531.81, 416.0 C 541.4, 434.14, 546.79, 466.99, 543.45, 487.0 C 542.68, 491.62, 541.45, 500.52, 541.25, 502.9 C 541.02, 505.66, 540.39, 507.63, 539.96, 506.94 C 539.59, 506.33, 539.45, 509.86, 539.71, 513.29 C 540.04, 517.71, 539.79, 521.0, 539.12, 521.0 C 538.56, 521.0, 538.25, 522.16, 538.52, 523.25 C 539.43, 526.92, 531.28, 560.29, 529.71, 559.32 C 529.26, 559.04, 529.03, 559.24, 529.3, 559.68 C 529.9, 560.66, 527.76, 567.97, 527.01, 567.51 C 526.71, 567.32, 526.33, 567.91, 526.33, 568.55 C 526.33, 570.64, 521.52, 579.82, 520.69, 579.31 C 520.25, 579.04, 520.06, 579.29, 520.35, 579.75 C 521.09, 580.96, 519.75, 583.96, 518.74, 583.34 C 518.25, 583.04, 518.07, 583.31, 518.4, 583.85 C 519.11, 584.98, 510.65, 597.9, 509.62, 597.26 C 509.21, 597.01, 509.06, 597.29, 509.35, 597.75 C 510.35, 599.37, 486.43, 626.38, 484.85, 625.41 C 484.46, 625.16, 484.1, 625.43, 484.23, 625.88 C 484.53, 627.01, 472.59, 635.86, 471.55, 635.27 C 471.09, 635.01, 470.92, 635.15, 471.26, 635.51 C 471.59, 635.88, 470.47, 637.4, 469.26, 638.23 C 465.69, 640.65, 457.0, 644.93, 456.99, 644.27 C 456.98, 643.93, 456.56, 644.06, 456.24, 644.5 C 455.24, 645.85, 447.7, 648.93, 446.78, 648.36 C 446.28, 648.06, 446.05, 648.28, 446.36, 648.76 C 447.02, 649.84, 440.18, 652.22, 438.77, 651.41 C 438.21, 651.09, 437.92, 651.15, 438.26, 651.51 C 439.06, 652.4, 424.54, 657.12, 422.28, 656.7 C 421.3, 656.52, 420.31, 656.69, 420.5, 657.01 C 420.7, 657.33, 418.02, 658.08, 415.73, 658.36 C 409.76, 659.07, 378.9, 658.97, 379.36, 658.23 C 379.57, 657.89, 377.56, 657.68, 375.78, 657.85 C 373.82, 658.04, 372.05, 657.74, 372.34, 657.26 C 372.62, 656.81, 371.68, 656.53, 370.59, 656.74 C 368.49, 657.14, 349.1, 651.94, 347.66, 650.59 C 347.15, 650.11, 345.94, 649.49, 345.5, 649.48 C 343.2, 649.45, 337.17, 646.51, 337.65, 645.67 C 337.95, 645.15, 337.88, 644.89, 337.54, 645.21 C 336.82, 645.85, 327.0, 641.14, 327.0, 640.15 C 327.0, 639.79, 326.19, 639.33, 325.56, 639.33 C 323.86, 639.33, 314.23, 632.44, 314.75, 631.6 C 315.0, 631.2, 314.71, 631.06, 314.24, 631.35 C 312.53, 632.41, 282.0, 604.03, 282.0, 601.39 C 282.0, 599.92, 279.25, 599.99, 278.01, 601.49 C 277.47, 602.14, 276.28, 602.67, 275.89, 602.43 C 275.5, 602.19, 275.0, 602.4, 275.0, 602.8 C 275.0, 603.21, 273.52, 603.44, 272.35, 603.22 C 270.74, 602.91, 270.02, 603.23, 270.51, 604.02 C 270.97, 604.77, 270.66, 605.08, 269.79, 604.75 C 268.57, 604.28, 272.29, 608.68, 281.91, 619.08 C 284.59, 621.98, 287.58, 626.09, 287.25, 626.42 C 286.92, 626.75, 287.34, 626.98, 288.0, 626.83 C 288.66, 626.69, 289.36, 627.2, 289.25, 627.75 C 289.14, 628.3, 289.7, 628.86, 290.25, 628.75 C 290.8, 628.64, 291.36, 629.2, 291.25, 629.75 C 291.14, 630.3, 291.42, 630.86, 291.75, 630.75 C 292.08, 630.64, 296.42, 633.66, 299.5, 636.14 C 302.58, 638.62, 311.95, 645.12, 316.22, 647.75 C 320.5, 650.38, 325.54, 654.17, 325.22, 654.52 C 324.9, 654.87, 325.11, 654.97, 325.6, 654.7 C 326.08, 654.42, 332.52, 656.61, 337.1, 658.6 C 353.5, 665.73, 377.53, 670.31, 397.0, 670.01 C 415.5, 669.73, 421.77, 669.44, 421.42, 668.88 C 421.25, 668.6, 423.7, 667.9, 425.79, 667.62 C 427.88, 667.34, 435.54, 665.35, 439.47, 664.06 C 443.41, 662.77, 448.86, 661.41, 449.2, 661.63 C 449.55, 661.84, 450.0, 661.65, 450.0, 661.28 C 450.0, 660.91, 453.62, 658.87, 456.46, 657.63 C 459.31, 656.39, 466.09, 652.91, 468.57, 651.41 C 471.06, 649.92, 474.72, 648.32, 475.11, 648.57 C 475.5, 648.81, 476.0, 648.66, 476.01, 648.31 C 476.01, 647.44, 492.33, 635.5, 493.17, 635.75 C 493.53, 635.86, 493.86, 635.51, 493.75, 635.13 C 493.5, 634.28, 507.41, 620.49, 508.25, 620.76 C 508.58, 620.87, 508.86, 620.51, 508.75, 620.12 C 508.64, 619.73, 511.43, 615.57, 513.73, 612.68 C 550.65, 566.38, 558.09, 458.33, 528.09, 404.05 C 522.21, 393.4, 492.01, 361.86, 479.25, 353.03 C 476.5, 351.13, 473.0, 348.23, 473.0, 347.86 C 473.0, 347.48, 472.58, 347.14, 472.25, 347.25 C 471.91, 347.36, 466.17, 344.89, 462.0, 342.83 C 454.2, 338.99, 429.58, 330.0, 426.89, 330.0 C 426.06, 330.0, 425.0, 329.58, 425.0, 329.25 C 425.0, 328.92, 423.74, 328.42, 422.75, 328.36 C 421.76, 328.3, 412.66, 327.77, 406.5, 327.42 C 399.66, 327.04, 393.78, 326.26, 395.0, 325.92 L 397.5 325.2 C 394.19, 325.08, 391.98, 325.51, 391.83, 325.91 M 468.67 381.96 C 467.42, 382.36, 464.95, 382.53, 464.25, 382.27 C 463.34, 381.92, 463.02, 382.23, 463.5, 383.0 C 463.98, 383.78, 463.64, 384.07, 462.66, 383.7 C 461.93, 383.42, 461.0, 383.66, 461.0, 384.14 C 461.0, 384.61, 460.13, 384.88, 459.45, 384.62 C 458.64, 384.31, 458.24, 384.58, 458.61, 385.18 C 459.0, 385.81, 458.54, 386.04, 457.61, 385.68 C 456.84, 385.38, 456.21, 385.54, 456.48, 385.96 C 456.98, 386.78, 453.46, 389.07, 452.63, 388.46 C 452.35, 388.26, 452.21, 388.31, 452.38, 388.55 C 452.8, 389.15, 444.64, 397.5, 443.86, 397.26 C 443.51, 397.16, 443.37, 397.8, 443.6, 398.41 C 443.84, 399.02, 442.98, 400.6, 442.07, 401.24 C 441.17, 401.87, 440.31, 402.98, 440.54, 403.21 C 441.14, 403.8, 438.66, 409.0, 437.78, 409.0 C 437.38, 409.0, 437.2, 409.51, 437.45, 409.92 C 437.7, 410.32, 437.37, 412.42, 436.87, 413.67 C 431.96, 425.78, 440.91, 483.27, 447.1, 479.44 C 447.49, 479.2, 447.69, 479.65, 447.46, 480.25 C 447.23, 480.84, 449.1, 484.94, 450.8, 487.57 C 462.02, 504.93, 492.0, 520.54, 505.98, 516.29 C 507.97, 515.69, 511.48, 515.17, 512.25, 515.37 C 513.02, 515.56, 513.7, 515.33, 513.47, 514.95 C 513.23, 514.57, 514.49, 513.27, 515.72, 512.63 C 518.61, 511.11, 524.8, 504.51, 527.76, 499.78 C 529.06, 497.7, 531.17, 495.46, 531.52, 495.78 C 531.87, 496.1, 531.97, 495.88, 531.7, 495.4 C 531.42, 494.92, 532.52, 489.6, 533.66, 485.9 C 539.61, 466.58, 528.02, 419.67, 513.0, 402.23 C 511.02, 399.93, 508.5, 396.3, 508.5, 395.75 C 508.5, 395.2, 507.94, 394.5, 507.5, 394.5 C 506.17, 394.49, 497.16, 387.17, 497.75, 386.58 C 498.05, 386.28, 497.38, 386.3, 496.56, 386.62 C 495.43, 387.05, 495.0, 386.81, 495.49, 386.01 C 495.9, 385.35, 495.79, 385.01, 495.26, 385.34 C 494.39, 385.88, 487.78, 383.55, 488.4, 382.93 C 488.59, 382.74, 487.62, 382.43, 486.67, 382.37 C 485.71, 382.31, 480.86, 381.9, 478.0, 381.64 C 475.14, 381.38, 469.91, 381.56, 468.67, 381.96 M 473.19 391.82 C 472.61, 392.21, 470.57, 392.45, 469.55, 392.25 C 467.26, 391.82, 462.88, 394.0, 463.63, 395.2 C 463.96, 395.74, 463.71, 395.94, 463.13, 395.58 C 461.13, 394.34, 449.46, 407.15, 450.39, 409.57 C 450.65, 410.25, 450.47, 410.79, 450.07, 410.54 C 449.11, 409.95, 446.83, 416.92, 447.58, 418.13 C 447.96, 418.75, 447.71, 418.94, 447.05, 418.53 C 446.27, 418.05, 446.01, 419.42, 446.39, 422.12 C 446.73, 424.58, 446.59, 425.62, 446.07, 424.5 C 445.55, 423.38, 445.11, 426.68, 445.07, 432.0 C 444.87, 459.02, 467.26, 498.42, 485.98, 504.0 C 491.55, 505.65, 502.36, 506.39, 501.54, 505.06 C 501.28, 504.64, 502.34, 504.38, 503.48, 504.58 C 504.61, 504.79, 506.0, 504.45, 506.0, 503.96 C 506.0, 503.49, 506.54, 503.22, 506.97, 503.48 C 514.13, 507.9, 527.78, 475.07, 525.88, 458.0 C 523.6, 437.37, 495.31, 390.98, 487.84, 395.6 C 487.32, 395.92, 487.03, 395.76, 487.31, 395.3 C 488.37, 393.58, 475.35, 390.38, 473.19, 391.82 M 470.56 398.91 C 469.98, 399.84, 476.11, 405.05, 477.07, 404.45 C 477.47, 404.21, 477.64, 404.76, 477.38, 405.45 C 477.12, 406.13, 477.36, 407.0, 477.81, 407.0 C 479.19, 407.0, 494.37, 425.84, 497.5, 431.43 C 506.81, 448.08, 510.88, 482.05, 504.56, 490.34 C 501.52, 494.32, 502.26, 496.04, 505.46, 492.42 C 513.87, 482.89, 512.95, 448.85, 503.86, 433.0 C 503.48, 432.34, 502.4, 430.1, 501.93, 429.0 C 500.55, 425.76, 493.76, 416.1, 491.09, 413.56 C 489.73, 412.27, 488.0, 409.89, 488.0, 409.31 C 488.0, 408.73, 487.38, 408.0, 486.89, 408.0 C 486.41, 408.0, 486.11, 408.84, 486.36, 409.5 C 486.61, 410.16, 486.63, 411.0, 486.4, 411.0 C 486.16, 411.0, 485.02, 410.16, 484.36, 409.5 C 483.48, 408.62, 483.39, 408.0, 484.13, 408.0 C 485.62, 408.0, 483.26, 405.86, 481.38, 405.51 C 480.55, 405.35, 479.29, 405.11, 479.13, 405.08 C 478.96, 405.04, 479.38, 404.25, 479.87, 403.66 C 480.76, 402.58, 477.24, 399.71, 475.44, 400.05 C 473.11, 400.51, 471.06, 399.62, 473.0, 399.0 C 474.86, 398.4, 474.94, 398.17, 473.31, 398.1 C 472.35, 398.06, 470.8, 398.51, 470.56, 398.91 M 434.06 401.89 C 433.52, 402.9, 432.26, 403.69, 431.7, 403.37 C 431.17, 403.07, 430.9, 403.12, 431.21, 403.47 C 431.87, 404.2, 429.1, 410.0, 428.08, 410.0 C 427.7, 410.0, 427.25, 410.7, 427.27, 411.25 C 427.36, 413.83, 426.73, 415.95, 426.0, 415.5 C 425.56, 415.23, 424.96, 415.9, 424.92, 416.69 C 424.89, 417.49, 424.54, 419.62, 424.31, 420.5 C 423.55, 423.3, 423.52, 438.0, 424.28, 438.0 C 424.68, 438.0, 424.99, 441.08, 424.84, 443.5 C 424.69, 445.92, 424.91, 449.14, 425.23, 449.25 C 425.55, 449.36, 426.54, 452.58, 426.99, 455.0 C 430.2, 472.18, 449.59, 505.19, 461.0, 512.89 C 470.76, 519.48, 488.72, 524.62, 491.67, 521.66 C 492.27, 521.06, 490.99, 520.88, 484.5, 520.63 C 478.11, 520.38, 465.93, 513.9, 458.32, 506.68 C 455.16, 503.68, 450.76, 499.95, 450.48, 500.02 C 450.2, 500.08, 449.46, 499.75, 449.17, 499.42 C 448.87, 499.1, 449.2, 499.08, 449.75, 499.4 C 451.16, 500.21, 450.87, 498.73, 449.13, 496.21 C 444.48, 489.46, 440.2, 481.1, 437.62, 473.73 C 434.54, 464.95, 430.7, 445.34, 431.46, 442.32 C 431.72, 441.29, 431.47, 440.0, 431.02, 440.0 C 430.57, 440.0, 430.08, 437.62, 430.14, 435.75 L 430.28 431.5 C 431.22, 436.53, 431.49, 434.5, 431.25, 430.3 C 430.96, 425.23, 431.3, 419.69, 432.01, 417.98 C 432.58, 416.61, 433.4, 413.22, 433.48, 411.93 C 433.76, 407.15, 434.31, 404.84, 435.41, 403.73 C 436.07, 403.07, 436.39, 401.64, 436.02, 401.03 C 435.54, 400.25, 434.75, 400.59, 434.06, 401.89 M 418.47 414.04 C 417.66, 414.93, 415.89, 415.79, 415.31, 415.57 C 414.73, 415.35, 414.0, 415.6, 414.0, 416.01 C 414.0, 417.0, 404.28, 421.94, 403.62, 421.29 C 403.35, 421.01, 403.0, 421.27, 403.0, 421.75 C 403.0, 422.22, 400.15, 424.58, 397.91, 425.96 C 395.68, 427.34, 393.19, 428.51, 393.47, 428.06 C 393.77, 427.56, 393.29, 427.33, 392.56, 427.62 C 391.88, 427.88, 391.26, 428.62, 391.46, 428.94 C 391.93, 429.7, 380.29, 435.95, 379.63, 435.29 C 379.35, 435.02, 379.0, 435.35, 379.0, 435.89 C 379.0, 436.43, 378.51, 436.82, 378.13, 436.58 C 377.75, 436.35, 376.28, 437.14, 375.5, 438.0 C 374.72, 438.86, 373.16, 439.6, 372.71, 439.32 C 372.24, 439.03, 372.08, 439.32, 372.4, 439.85 C 372.72, 440.35, 372.52, 441.0, 372.06, 441.0 C 370.41, 441.0, 369.22, 441.67, 368.15, 443.2 C 367.55, 444.05, 365.98, 444.82, 365.34, 444.58 C 364.71, 444.33, 364.19, 444.5, 364.42, 444.87 C 364.65, 445.25, 362.69, 446.74, 360.92, 447.54 C 359.15, 448.33, 355.14, 451.35, 353.75, 452.92 C 352.37, 454.5, 350.11, 456.35, 349.73, 456.23 C 349.34, 456.11, 349.18, 456.48, 349.44, 456.89 C 349.69, 457.31, 349.27, 458.59, 348.68, 459.18 C 348.09, 459.77, 347.55, 461.16, 347.72, 461.67 C 347.89, 462.18, 347.32, 463.56, 346.7, 464.13 C 346.09, 464.71, 345.59, 466.53, 345.81, 467.38 C 346.1, 468.51, 345.77, 468.97, 345.0, 468.5 C 344.41, 468.14, 343.99, 468.19, 344.24, 468.6 C 344.48, 468.99, 344.42, 476.08, 344.14, 481.25 C 343.86, 486.42, 343.84, 493.0, 344.11, 493.0 C 344.38, 493.0, 345.08, 495.54, 345.35, 497.54 C 347.34, 512.05, 363.73, 539.68, 374.9, 547.35 C 377.36, 549.04, 380.78, 551.56, 381.0, 551.85 C 381.8, 552.89, 406.15, 554.05, 405.51, 553.01 C 405.3, 552.68, 409.37, 550.7, 412.77, 549.48 C 418.54, 547.41, 439.05, 538.68, 442.29, 536.91 C 443.08, 536.48, 444.62, 536.26, 445.04, 536.52 C 445.46, 536.78, 446.0, 536.61, 446.0, 536.21 C 446.0, 535.1, 468.34, 524.92, 469.66, 525.42 C 470.3, 525.67, 470.77, 525.44, 470.51, 525.02 C 470.25, 524.6, 471.37, 523.69, 472.51, 523.41 C 476.21, 522.48, 473.18, 522.27, 467.58, 523.06 C 464.12, 523.55, 456.46, 526.04, 452.12, 528.09 C 441.46, 533.11, 423.68, 539.92, 422.75, 539.34 C 422.28, 539.06, 422.05, 539.27, 422.32, 539.72 C 422.98, 540.77, 414.13, 544.2, 412.77, 543.41 C 412.21, 543.09, 411.92, 543.14, 412.25, 543.5 C 414.84, 546.36, 392.37, 548.49, 385.79, 546.01 C 377.57, 542.92, 355.77, 517.66, 357.48, 513.2 C 357.7, 512.63, 357.51, 512.19, 357.14, 512.41 C 356.07, 513.07, 352.57, 500.0, 352.57, 495.35 C 352.57, 493.03, 352.15, 490.75, 351.82, 491.29 C 351.49, 491.82, 351.08, 486.07, 351.08, 481.01 C 351.08, 475.94, 351.55, 470.26, 351.91, 470.85 C 352.34, 471.55, 352.72, 470.83, 352.72, 469.33 C 352.72, 464.19, 358.15, 453.36, 360.12, 454.58 C 360.5, 454.81, 360.7, 454.37, 360.48, 453.8 C 360.07, 452.71, 368.65, 446.67, 370.62, 446.67 C 371.23, 446.67, 371.74, 446.41, 371.54, 446.21 C 371.08, 445.75, 387.41, 435.77, 388.71, 435.71 C 389.24, 435.69, 389.56, 435.1, 389.29, 434.66 C 389.0, 434.19, 389.54, 433.99, 390.32, 434.29 C 391.14, 434.61, 391.86, 434.31, 391.74, 433.71 C 391.63, 433.18, 392.34, 432.5, 393.0, 432.5 C 393.66, 432.5, 394.78, 432.2, 395.0, 431.96 C 396.59, 430.22, 408.59, 423.24, 409.26, 423.66 C 409.75, 423.96, 409.93, 423.69, 409.6, 423.15 C 409.28, 422.65, 409.43, 422.0, 409.86, 422.0 C 410.3, 422.0, 413.41, 420.04, 415.42, 418.51 C 417.44, 416.97, 420.01, 415.43, 420.01, 415.76 C 420.03, 416.51, 421.97, 413.56, 421.99, 412.75 C 422.01, 411.64, 419.95, 412.39, 418.47, 414.04 M 1167.58 422.87 C 1167.2, 423.49, 1159.85, 424.97, 1155.35, 425.33 C 1154.4, 425.4, 1153.51, 426.02, 1153.76, 426.42 C 1154.01, 426.83, 1153.37, 426.97, 1152.61, 426.68 C 1151.86, 426.39, 1151.17, 426.47, 1151.39, 426.83 C 1151.61, 427.18, 1150.1, 428.69, 1148.7, 429.52 C 1147.29, 430.35, 1145.38, 431.15, 1145.28, 430.95 C 1145.18, 430.75, 1142.57, 434.29, 1140.62, 437.26 C 1131.83, 450.64, 1136.17, 477.97, 1149.25, 491.65 C 1150.99, 493.47, 1153.15, 496.13, 1153.11, 496.4 C 1153.06, 496.66, 1153.22, 496.86, 1153.39, 496.75 C 1154.01, 496.36, 1157.85, 500.44, 1157.46, 501.06 C 1157.24, 501.41, 1157.62, 502.27, 1158.14, 502.58 C 1158.76, 502.97, 1158.93, 502.7, 1158.5, 502.0 C 1158.07, 501.31, 1158.23, 501.03, 1158.85, 501.4 C 1159.35, 501.72, 1160.0, 502.96, 1160.0, 503.62 C 1160.0, 504.28, 1160.46, 504.83, 1160.83, 504.61 C 1162.19, 503.77, 1177.77, 521.56, 1176.66, 522.68 C 1176.41, 522.92, 1176.91, 524.05, 1177.55, 524.69 C 1181.74, 528.88, 1173.69, 552.4, 1169.04, 549.53 C 1168.58, 549.24, 1168.0, 549.48, 1168.0, 549.94 C 1168.0, 550.85, 1159.25, 551.17, 1156.26, 550.37 C 1155.28, 550.11, 1154.38, 549.19, 1154.67, 548.73 C 1154.95, 548.27, 1154.71, 548.06, 1154.24, 548.35 C 1153.12, 549.04, 1150.0, 547.82, 1150.56, 546.91 C 1150.8, 546.52, 1150.32, 546.33, 1149.7, 546.56 C 1148.27, 547.11, 1137.91, 535.96, 1138.65, 534.66 C 1138.95, 534.15, 1138.86, 533.92, 1138.49, 534.25 C 1138.13, 534.58, 1136.56, 534.02, 1135.69, 533.25 C 1134.15, 531.88, 1133.84, 532.26, 1134.3, 535.0 C 1134.56, 536.54, 1135.23, 542.98, 1135.5, 546.5 C 1135.77, 550.02, 1136.43, 556.11, 1136.67, 557.38 C 1136.91, 558.64, 1136.73, 559.95, 1136.36, 559.72 C 1135.98, 559.49, 1135.5, 560.51, 1135.5, 561.54 C 1135.5, 562.74, 1136.24, 563.81, 1137.0, 563.72 C 1139.87, 563.4, 1152.92, 565.43, 1151.93, 566.04 C 1151.33, 566.41, 1153.06, 566.58, 1155.05, 566.35 C 1157.77, 566.04, 1158.92, 566.27, 1158.0, 566.94 C 1156.68, 567.92, 1165.2, 567.31, 1172.33, 565.92 C 1174.46, 565.51, 1177.77, 565.36, 1178.24, 565.65 C 1178.78, 565.99, 1178.91, 565.66, 1178.49, 564.99 C 1178.01, 564.22, 1178.37, 563.93, 1179.34, 564.3 C 1180.07, 564.58, 1181.0, 564.5, 1181.0, 564.15 C 1181.0, 563.54, 1188.06, 559.2, 1189.25, 559.08 C 1189.58, 559.04, 1190.06, 558.58, 1190.12, 558.25 C 1190.17, 557.92, 1191.93, 555.57, 1193.26, 554.05 C 1196.29, 550.6, 1199.99, 542.36, 1200.64, 537.61 C 1200.92, 535.6, 1201.65, 533.28, 1201.95, 533.47 C 1202.25, 533.65, 1201.72, 528.74, 1201.0, 524.69 C 1199.69, 517.29, 1196.36, 509.11, 1192.61, 504.1 C 1191.49, 502.6, 1190.42, 500.09, 1190.69, 499.6 C 1190.97, 499.12, 1190.88, 498.9, 1190.53, 499.22 C 1189.85, 499.83, 1185.5, 494.9, 1185.5, 493.52 C 1185.5, 493.07, 1184.66, 492.48, 1184.0, 492.45 C 1183.34, 492.43, 1182.65, 491.69, 1182.78, 491.13 C 1182.9, 490.57, 1182.62, 490.11, 1182.28, 490.32 C 1181.94, 490.53, 1178.98, 488.54, 1177.0, 486.78 C 1175.02, 485.01, 1173.34, 483.2, 1174.0, 483.55 C 1174.71, 483.91, 1175.06, 483.84, 1174.67, 483.41 C 1174.3, 483.01, 1173.18, 482.48, 1172.67, 482.45 C 1172.15, 482.43, 1171.65, 481.69, 1171.78, 481.13 C 1171.9, 480.57, 1171.52, 480.18, 1171.11, 480.44 C 1170.23, 480.98, 1164.0, 473.81, 1164.56, 472.9 C 1164.77, 472.56, 1164.38, 471.73, 1163.86, 471.42 C 1163.28, 471.05, 1163.05, 471.27, 1163.4, 471.85 C 1163.72, 472.35, 1163.83, 473.0, 1163.6, 473.0 C 1162.62, 473.0, 1157.96, 463.55, 1158.39, 462.44 C 1158.69, 461.66, 1158.43, 461.24, 1157.86, 461.58 C 1157.23, 461.97, 1156.93, 459.48, 1157.16, 455.82 C 1157.64, 448.31, 1163.57, 441.32, 1170.12, 440.55 C 1172.93, 440.22, 1173.6, 440.38, 1172.0, 440.99 C 1170.46, 441.58, 1171.36, 441.74, 1174.36, 441.4 C 1177.0, 441.1, 1178.91, 441.33, 1178.56, 441.91 C 1178.24, 442.42, 1178.66, 442.69, 1179.36, 442.42 C 1180.89, 441.83, 1186.99, 445.01, 1186.74, 446.27 C 1186.64, 446.81, 1187.15, 447.38, 1187.67, 447.28 C 1188.9, 447.04, 1195.0, 454.02, 1195.0, 455.66 C 1195.0, 456.7, 1195.52, 456.81, 1196.5, 456.0 C 1197.16, 455.45, 1197.94, 453.28, 1197.9, 452.13 L 1197.8 449.5 C 1196.71, 453.4, 1194.0, 434.14, 1194.0, 428.14 C 1194.0, 426.4, 1193.31, 425.0, 1192.44, 425.0 C 1191.69, 425.0, 1191.26, 425.61, 1191.61, 426.17 C 1192.0, 426.81, 1191.53, 427.04, 1190.58, 426.67 C 1189.81, 426.37, 1187.17, 426.0, 1185.86, 426.0 C 1184.55, 426.0, 1183.18, 425.52, 1183.41, 425.14 C 1183.64, 424.77, 1182.56, 424.55, 1181.47, 424.76 C 1180.38, 424.97, 1179.0, 424.66, 1179.0, 424.21 C 1179.0, 423.72, 1176.92, 423.47, 1175.0, 423.73 C 1172.9, 424.01, 1171.0, 423.73, 1171.0, 423.13 C 1171.0, 422.07, 1168.21, 421.85, 1167.58, 422.87 M 1248.42 422.88 C 1248.8, 423.48, 1242.21, 424.81, 1236.35, 425.31 C 1235.4, 425.4, 1234.41, 425.85, 1234.58, 426.13 C 1234.75, 426.41, 1233.33, 427.45, 1232.04, 427.99 C 1229.0, 429.25, 1218.93, 439.89, 1217.85, 442.99 C 1217.39, 444.32, 1216.44, 446.0, 1216.15, 446.0 C 1215.05, 446.0, 1215.23, 464.67, 1216.37, 468.98 C 1217.01, 471.4, 1217.51, 475.04, 1217.25, 475.48 C 1217.0, 475.93, 1217.14, 476.08, 1217.51, 475.75 C 1217.87, 475.42, 1219.98, 477.9, 1221.28, 480.17 C 1222.58, 482.44, 1228.79, 489.84, 1232.37, 493.37 C 1235.95, 496.91, 1240.31, 501.99, 1240.17, 502.45 C 1240.02, 502.91, 1240.26, 503.07, 1240.59, 502.74 C 1241.42, 501.92, 1245.94, 506.28, 1245.32, 507.3 C 1245.04, 507.74, 1245.29, 507.94, 1245.77, 507.64 C 1246.98, 506.9, 1254.18, 513.9, 1253.43, 515.11 C 1253.05, 515.72, 1253.26, 515.95, 1253.87, 515.58 C 1255.04, 514.86, 1260.28, 525.83, 1259.6, 527.59 C 1259.34, 528.28, 1259.56, 528.77, 1260.01, 528.49 C 1260.5, 528.19, 1261.0, 530.74, 1261.0, 533.5 C 1261.0, 535.98, 1260.49, 538.81, 1260.09, 538.56 C 1259.69, 538.31, 1259.47, 539.07, 1259.69, 539.91 C 1259.92, 540.81, 1259.09, 542.91, 1258.09, 543.91 C 1257.17, 544.83, 1256.0, 546.54, 1256.0, 546.97 C 1256.0, 548.04, 1251.93, 550.08, 1250.98, 549.49 C 1250.55, 549.22, 1250.0, 549.48, 1250.0, 549.94 C 1250.0, 550.43, 1247.06, 551.0, 1244.5, 551.0 C 1241.94, 551.0, 1239.0, 550.43, 1239.0, 549.94 C 1239.0, 549.48, 1238.44, 549.23, 1238.0, 549.5 C 1235.5, 551.05, 1215.65, 533.88, 1216.3, 530.74 C 1216.39, 530.3, 1215.94, 529.54, 1215.5, 529.38 C 1215.02, 529.2, 1214.5, 532.09, 1214.5, 534.9 C 1214.5, 537.5, 1214.87, 540.58, 1215.16, 540.4 C 1215.84, 539.98, 1217.25, 556.82, 1216.8, 559.93 C 1216.61, 561.23, 1216.78, 562.63, 1217.11, 562.43 C 1217.44, 562.23, 1218.21, 562.54, 1218.49, 562.98 C 1218.77, 563.43, 1221.36, 564.0, 1223.12, 564.0 C 1224.88, 564.0, 1226.85, 564.43, 1226.64, 564.77 C 1226.43, 565.11, 1228.5, 565.35, 1230.33, 565.21 C 1232.34, 565.05, 1233.86, 565.32, 1233.27, 565.74 C 1232.7, 566.14, 1235.63, 566.43, 1238.77, 566.3 C 1242.55, 566.13, 1244.62, 566.41, 1243.5, 566.93 C 1242.34, 567.47, 1242.15, 567.89, 1243.05, 567.93 C 1243.73, 567.96, 1245.27, 567.33, 1245.8, 566.8 C 1246.55, 566.05, 1247.0, 566.1, 1247.0, 566.92 C 1247.0, 567.77, 1247.54, 567.8, 1248.51, 566.99 C 1249.25, 566.38, 1251.82, 566.03, 1253.53, 566.31 C 1255.2, 566.58, 1256.74, 566.39, 1256.46, 565.94 C 1256.05, 565.27, 1258.86, 564.63, 1261.74, 564.73 C 1262.28, 564.75, 1262.61, 564.18, 1262.33, 563.72 C 1262.0, 563.19, 1262.52, 562.99, 1263.39, 563.32 C 1264.15, 563.61, 1264.79, 563.47, 1264.54, 563.06 C 1264.06, 562.29, 1268.13, 560.5, 1269.5, 560.88 C 1269.94, 561.01, 1270.1, 560.76, 1269.78, 560.44 C 1269.46, 560.12, 1271.84, 556.67, 1274.03, 554.28 C 1276.22, 551.89, 1279.0, 548.29, 1279.0, 547.86 C 1279.0, 547.43, 1279.65, 547.28, 1280.15, 547.6 C 1280.66, 547.91, 1280.99, 547.79, 1280.74, 547.38 C 1280.48, 546.97, 1281.01, 542.83, 1281.68, 539.98 C 1284.28, 528.91, 1279.63, 509.03, 1272.63, 501.27 C 1271.05, 499.52, 1269.31, 496.93, 1269.52, 496.65 C 1269.73, 496.36, 1269.75, 496.16, 1269.55, 496.29 C 1268.94, 496.67, 1253.54, 481.67, 1253.75, 480.9 C 1253.86, 480.5, 1253.53, 480.14, 1253.17, 480.25 C 1250.36, 481.1, 1238.7, 463.23, 1239.37, 459.1 C 1239.71, 456.98, 1239.52, 456.12, 1238.91, 457.0 C 1238.32, 457.86, 1238.16, 456.58, 1238.53, 454.0 C 1239.11, 450.01, 1244.33, 442.46, 1246.38, 442.64 C 1247.08, 442.7, 1247.62, 442.19, 1247.33, 441.73 C 1246.99, 441.18, 1248.29, 441.0, 1250.1, 441.34 C 1252.01, 441.71, 1252.84, 441.57, 1252.0, 441.01 C 1251.06, 440.4, 1251.55, 440.02, 1253.31, 440.01 C 1254.59, 440.01, 1255.79, 440.54, 1255.51, 440.99 C 1255.23, 441.44, 1255.72, 441.66, 1256.41, 441.4 C 1257.99, 440.79, 1265.04, 443.13, 1264.46, 444.07 C 1264.21, 444.47, 1264.63, 444.72, 1265.2, 444.52 C 1266.91, 443.92, 1277.39, 454.56, 1276.51, 455.99 C 1276.27, 456.37, 1276.42, 457.14, 1276.78, 457.36 C 1277.13, 457.58, 1277.71, 456.08, 1277.82, 454.68 C 1277.92, 453.28, 1278.37, 450.45, 1278.63, 449.62 C 1278.89, 448.79, 1278.7, 448.07, 1278.28, 448.33 C 1277.44, 448.85, 1274.76, 428.2, 1275.51, 426.99 C 1275.79, 426.54, 1275.18, 426.38, 1274.39, 426.68 C 1273.38, 427.07, 1273.01, 426.79, 1273.49, 426.01 C 1273.97, 425.24, 1273.72, 425.05, 1272.9, 425.56 C 1271.74, 426.29, 1266.9, 426.04, 1265.51, 425.19 C 1265.08, 424.93, 1262.56, 424.73, 1261.01, 424.84 C 1259.13, 424.97, 1258.12, 424.66, 1258.84, 424.18 C 1259.51, 423.73, 1257.64, 423.52, 1255.09, 423.77 C 1252.37, 424.03, 1250.0, 423.73, 1250.0, 423.13 C 1250.0, 422.63, 1249.41, 422.0, 1248.94, 422.0 C 1248.48, 422.0, 1248.18, 422.49, 1248.42, 422.88 M 635.5 424.05 C 629.5, 424.41, 623.8, 425.52, 621.25, 426.84 C 619.38, 427.81, 617.0, 428.75, 617.0, 428.52 C 617.0, 428.29, 614.98, 430.23, 613.39, 431.99 C 611.79, 433.76, 609.15, 435.62, 608.64, 435.33 C 608.14, 435.04, 607.86, 435.08, 608.14, 435.4 C 608.43, 435.72, 606.89, 439.77, 605.39, 442.63 C 603.9, 445.5, 602.0, 450.54, 602.0, 451.63 C 602.0, 452.73, 601.55, 453.84, 601.2, 453.62 C 600.85, 453.4, 600.85, 457.15, 601.21, 460.31 C 601.57, 463.47, 602.16, 468.99, 602.26, 470.15 C 602.37, 471.32, 603.01, 472.49, 603.41, 472.25 C 603.81, 472.0, 604.0, 472.9, 603.75, 473.85 C 603.5, 474.8, 603.63, 475.73, 603.98, 475.51 C 604.33, 475.3, 605.51, 476.81, 606.09, 478.21 C 606.67, 479.61, 608.99, 483.19, 610.23, 484.61 C 611.47, 486.03, 612.9, 488.55, 612.78, 489.12 C 612.66, 489.69, 613.34, 490.44, 614.0, 490.45 C 614.66, 490.47, 615.5, 491.34, 615.5, 492.0 C 615.5, 492.66, 616.15, 493.5, 616.67, 493.5 C 617.86, 493.5, 619.5, 495.14, 619.5, 496.33 C 619.5, 496.85, 620.19, 497.5, 620.73, 497.5 C 622.31, 497.5, 640.98, 516.22, 640.38, 517.2 C 640.07, 517.7, 640.26, 517.96, 640.74, 517.66 C 641.79, 517.01, 645.16, 523.93, 644.4, 525.17 C 644.06, 525.71, 644.27, 525.95, 644.79, 525.63 C 646.02, 524.87, 647.22, 532.04, 646.58, 536.29 C 645.51, 543.44, 637.5, 551.0, 631.0, 550.98 C 626.59, 550.97, 621.98, 549.83, 622.56, 548.9 C 622.8, 548.51, 622.14, 548.39, 621.39, 548.68 C 620.52, 549.01, 620.0, 548.81, 620.33, 548.28 C 620.62, 547.8, 620.03, 547.3, 619.24, 547.36 C 618.47, 547.42, 617.65, 546.76, 617.77, 546.18 C 617.89, 545.59, 617.45, 545.22, 616.98, 545.51 C 615.86, 546.2, 613.0, 543.81, 613.67, 542.73 C 613.95, 542.27, 613.74, 542.04, 613.29, 542.32 C 612.22, 542.98, 604.97, 534.86, 605.65, 533.76 C 605.95, 533.27, 605.72, 533.06, 605.22, 533.36 C 604.75, 533.66, 603.79, 533.46, 603.51, 533.02 C 602.42, 531.25, 601.1, 532.94, 601.27, 535.9 C 601.37, 537.61, 601.87, 539.57, 602.16, 539.39 C 602.88, 538.96, 604.22, 553.87, 603.83, 557.95 C 603.5, 561.41, 607.32, 563.98, 612.81, 563.99 C 613.83, 564.0, 614.78, 564.55, 614.51, 564.99 C 614.21, 565.48, 615.5, 565.65, 617.11, 565.33 C 618.57, 565.04, 620.01, 565.18, 619.75, 565.59 C 619.5, 566.0, 621.89, 566.31, 624.12, 566.15 C 626.46, 565.99, 629.83, 566.45, 630.53, 567.02 C 631.35, 567.71, 632.0, 567.75, 632.0, 567.12 C 632.0, 566.58, 634.57, 566.0, 636.99, 566.0 C 641.42, 566.0, 651.29, 562.71, 654.56, 560.13 C 655.74, 559.21, 657.87, 558.39, 658.37, 558.67 C 658.87, 558.96, 659.08, 558.86, 658.76, 558.5 C 657.92, 557.58, 660.26, 555.04, 661.36, 555.67 C 661.86, 555.96, 662.1, 555.88, 661.78, 555.53 C 661.07, 554.74, 663.03, 550.9, 663.88, 551.43 C 664.23, 551.64, 664.71, 551.24, 664.74, 550.71 C 664.77, 550.18, 666.04, 546.14, 667.01, 543.5 C 668.55, 539.29, 669.02, 534.52, 668.58, 527.5 C 667.93, 517.04, 667.47, 513.21, 666.92, 513.55 C 666.67, 513.7, 665.17, 511.47, 664.24, 509.56 C 663.31, 507.65, 660.36, 503.2, 658.96, 501.61 C 657.57, 500.02, 656.22, 498.0, 656.55, 498.0 C 656.89, 498.0, 656.31, 496.89, 655.52, 496.02 C 654.73, 495.15, 653.32, 494.3, 653.0, 494.5 C 652.41, 494.87, 648.38, 490.98, 648.75, 490.39 C 648.86, 490.22, 648.58, 489.93, 648.25, 489.88 C 647.16, 489.71, 633.84, 476.78, 630.92, 473.06 C 626.49, 467.42, 622.21, 453.0, 624.97, 453.0 C 625.39, 453.0, 625.63, 452.21, 625.4, 451.59 C 625.16, 450.97, 625.75, 448.45, 626.45, 447.09 C 627.62, 444.83, 629.52, 443.59, 631.32, 443.91 C 631.69, 443.97, 631.82, 443.52, 631.56, 443.1 C 630.96, 442.13, 634.91, 440.83, 636.15, 441.59 C 636.76, 441.97, 636.93, 441.7, 636.5, 441.01 C 636.0, 440.19, 637.36, 439.89, 640.14, 440.21 C 644.47, 440.69, 652.05, 444.12, 651.34, 445.26 C 651.04, 445.74, 651.3, 445.93, 651.8, 445.62 C 652.98, 444.89, 661.01, 452.18, 660.33, 453.36 C 660.04, 453.86, 660.13, 454.09, 660.49, 453.77 C 660.85, 453.44, 662.08, 454.0, 662.69, 454.77 C 663.66, 455.97, 663.85, 453.88, 663.33, 448.0 C 662.99, 444.26, 662.55, 436.89, 662.54, 434.84 C 662.53, 432.68, 662.07, 430.8, 661.7, 431.34 C 661.33, 431.86, 661.06, 430.21, 661.21, 428.34 C 661.43, 425.48, 661.03, 424.45, 659.92, 425.04 C 658.37, 425.87, 648.11, 425.32, 646.73, 424.33 C 646.19, 423.95, 639.9, 423.79, 635.5, 424.05 M 416.69 425.45 C 416.05, 426.09, 414.89, 426.56, 414.62, 426.29 C 414.35, 426.01, 414.0, 426.31, 414.0, 426.81 C 414.0, 427.6, 408.66, 431.07, 407.51, 431.02 C 405.73, 430.95, 404.87, 431.2, 405.33, 431.66 C 406.13, 432.46, 399.79, 435.99, 398.69, 435.36 C 398.17, 435.06, 397.92, 435.14, 398.25, 435.5 C 398.93, 436.25, 391.71, 440.94, 390.77, 440.36 C 390.43, 440.15, 390.0, 440.48, 390.0, 440.96 C 390.0, 442.13, 383.64, 445.89, 382.67, 445.29 C 382.23, 445.03, 382.09, 445.33, 382.4, 445.85 C 382.72, 446.35, 382.52, 447.0, 382.06, 447.0 C 381.59, 447.0, 380.72, 447.0, 380.5, 447.0 C 380.28, 447.0, 378.86, 448.14, 377.96, 449.04 C 377.07, 449.93, 375.39, 450.74, 374.96, 450.48 C 374.54, 450.22, 374.0, 450.41, 374.0, 450.83 C 374.0, 451.76, 368.68, 455.33, 367.28, 455.33 C 366.72, 455.33, 366.0, 455.8, 366.0, 456.17 C 366.0, 456.53, 365.58, 456.86, 365.25, 456.75 C 364.92, 456.64, 364.41, 456.99, 364.33, 457.38 C 364.26, 457.76, 362.67, 459.23, 361.5, 460.0 C 360.33, 460.77, 358.88, 462.1, 358.92, 462.37 C 359.13, 463.96, 358.71, 464.94, 358.01, 464.51 C 357.56, 464.23, 357.35, 464.74, 357.62, 465.45 C 357.88, 466.13, 357.61, 467.0, 357.14, 467.0 C 356.67, 467.0, 356.39, 467.84, 356.64, 468.5 C 356.89, 469.16, 356.69, 470.0, 356.28, 470.0 C 355.87, 470.0, 355.53, 471.82, 355.68, 473.25 C 355.85, 474.91, 355.65, 475.67, 355.26, 474.8 C 354.92, 474.03, 354.46, 477.61, 354.43, 481.3 C 354.4, 485.2, 354.74, 488.19, 355.08, 487.0 C 355.59, 485.22, 355.83, 485.51, 355.9, 488.02 C 355.94, 489.57, 357.08, 495.43, 357.93, 498.49 C 358.77, 501.54, 359.53, 505.96, 359.27, 506.37 C 359.02, 506.78, 359.27, 506.95, 359.73, 506.67 C 360.2, 506.38, 362.33, 509.09, 363.6, 511.62 C 366.09, 516.54, 375.05, 525.35, 376.29, 524.11 C 376.71, 523.69, 378.16, 523.45, 378.87, 523.67 C 379.93, 524.01, 380.01, 523.84, 379.09, 523.19 C 378.47, 522.75, 376.96, 522.46, 376.4, 522.68 C 375.78, 522.92, 373.81, 520.6, 372.58, 518.15 C 370.64, 514.33, 367.17, 510.4, 368.28, 513.28 C 368.63, 514.19, 368.26, 514.65, 367.45, 514.34 C 366.03, 513.8, 365.9, 512.2, 367.25, 511.73 C 367.97, 511.48, 367.69, 510.38, 366.6, 509.15 C 363.33, 505.47, 367.51, 508.66, 372.88, 513.95 C 375.99, 517.01, 380.28, 520.36, 380.54, 519.93 C 380.8, 519.51, 381.66, 519.29, 382.07, 519.54 C 383.28, 520.29, 382.76, 518.74, 381.25, 517.13 C 376.05, 511.58, 374.18, 509.0, 375.35, 509.0 C 376.01, 509.0, 378.15, 510.82, 379.16, 512.25 C 381.54, 515.62, 385.49, 518.89, 385.87, 517.81 C 386.03, 517.35, 384.64, 515.43, 383.37, 514.39 C 381.69, 512.99, 381.33, 512.28, 382.5, 512.66 C 384.06, 513.17, 384.04, 512.79, 382.4, 510.91 C 379.48, 507.56, 379.27, 506.03, 382.1, 508.65 C 383.6, 510.04, 386.62, 512.02, 387.5, 512.19 C 388.42, 512.37, 389.42, 513.5, 389.36, 514.29 C 389.3, 515.04, 390.05, 516.0, 390.71, 516.0 C 392.5, 516.0, 388.14, 509.51, 386.13, 509.19 C 385.27, 509.06, 383.83, 508.0, 383.56, 507.3 C 383.17, 506.28, 383.46, 506.14, 384.39, 506.91 C 385.2, 507.58, 386.11, 507.63, 386.49, 507.01 C 386.82, 506.48, 388.16, 507.21, 389.15, 508.47 C 390.03, 509.58, 391.92, 511.0, 392.52, 511.0 C 393.13, 511.0, 394.51, 511.98, 395.0, 512.75 C 395.74, 513.94, 395.89, 513.75, 395.45, 512.15 C 395.16, 511.12, 393.74, 508.74, 392.9, 507.9 C 392.06, 507.06, 391.0, 505.41, 391.0, 504.94 C 391.0, 504.48, 392.26, 505.31, 393.25, 506.42 C 394.24, 507.53, 397.07, 509.21, 398.31, 509.42 C 400.55, 509.8, 400.3, 509.04, 397.06, 505.7 C 395.27, 503.86, 393.0, 500.81, 393.0, 500.26 C 393.0, 499.71, 395.24, 501.24, 397.0, 503.0 C 400.12, 506.12, 403.0, 507.59, 403.0, 506.05 C 403.0, 505.63, 402.02, 504.53, 401.25, 504.08 C 400.48, 503.63, 400.02, 503.04, 400.42, 503.03 C 400.83, 503.02, 402.37, 503.93, 403.18, 504.66 C 405.72, 506.96, 405.62, 504.64, 403.06, 501.72 C 399.48, 497.64, 400.38, 497.17, 404.62, 500.9 C 409.23, 504.95, 411.34, 504.24, 406.99, 500.1 C 405.23, 498.43, 403.0, 495.57, 403.0, 494.98 C 403.0, 494.29, 404.12, 494.7, 405.32, 495.83 C 406.35, 496.79, 408.07, 497.59, 408.41, 497.26 C 408.74, 496.93, 408.98, 497.07, 408.83, 497.52 C 408.42, 498.78, 412.88, 504.0, 413.51, 502.99 C 413.8, 502.52, 413.52, 501.13, 413.01, 500.51 C 412.34, 499.71, 412.29, 498.33, 412.89, 497.3 C 413.66, 495.99, 413.95, 496.11, 413.97, 497.75 C 413.98, 498.74, 414.57, 500.0, 415.02, 500.0 C 415.49, 500.0, 415.72, 501.48, 415.46, 502.75 C 415.06, 504.6, 415.24, 504.92, 416.0, 503.73 C 416.51, 502.92, 417.77, 502.36, 418.31, 502.69 C 418.83, 503.01, 418.51, 501.9, 417.73, 500.71 C 416.95, 499.52, 416.52, 498.0, 416.97, 498.0 C 417.41, 498.0, 418.68, 499.12, 419.23, 500.0 C 420.29, 501.7, 422.0, 502.32, 422.0, 501.01 C 422.0, 499.65, 416.3, 492.07, 415.25, 492.04 C 413.84, 492.0, 414.03, 490.0, 415.44, 490.0 C 416.08, 490.0, 417.64, 491.08, 418.24, 491.93 C 418.83, 492.78, 421.16, 494.25, 422.39, 494.56 C 423.79, 494.91, 424.6, 495.63, 424.01, 495.99 C 423.34, 496.41, 423.51, 496.98, 424.42, 497.33 C 425.11, 497.6, 426.0, 497.41, 426.0, 497.0 C 426.0, 495.88, 429.61, 497.52, 430.81, 499.18 C 431.38, 499.98, 433.48, 501.0, 434.56, 501.0 C 435.63, 501.0, 437.0, 501.65, 437.0, 502.17 C 437.0, 502.68, 437.38, 502.96, 437.67, 502.66 C 437.97, 502.37, 437.07, 500.64, 436.07, 499.57 C 435.07, 498.5, 434.16, 496.55, 434.45, 496.07 C 434.75, 495.6, 434.62, 495.0, 434.23, 495.0 C 432.89, 495.0, 432.24, 496.58, 433.13, 497.66 C 434.24, 498.99, 432.52, 499.12, 431.2, 497.8 C 429.95, 496.55, 429.98, 495.0, 431.25, 495.25 C 431.91, 495.38, 432.5, 493.72, 432.5, 491.75 C 432.5, 490.1, 432.05, 488.0, 431.7, 488.0 C 430.59, 488.0, 424.62, 474.11, 424.57, 471.41 C 424.54, 470.0, 424.18, 468.4, 423.92, 468.55 C 422.92, 469.16, 419.68, 451.82, 419.81, 446.5 C 419.9, 442.63, 419.54, 440.17, 419.0, 441.0 C 418.47, 441.82, 418.02, 438.54, 418.01, 433.69 C 418.01, 429.19, 418.49, 425.18, 419.0, 425.5 C 419.44, 425.77, 420.0, 425.52, 420.0, 425.06 C 420.0, 423.86, 418.05, 424.09, 416.69, 425.45 M 891.5 425.62 C 889.3, 426.29, 885.82, 427.19, 885.29, 427.23 C 884.76, 427.28, 884.44, 427.9, 884.71, 428.34 C 885.01, 428.82, 884.44, 429.0, 883.61, 428.68 C 882.8, 428.37, 882.22, 428.54, 882.51, 429.01 C 882.98, 429.77, 881.19, 430.38, 879.5, 430.04 C 879.06, 429.95, 878.88, 430.21, 879.18, 430.51 C 879.48, 430.81, 877.93, 432.87, 876.43, 434.2 C 874.92, 435.52, 871.48, 439.91, 870.29, 442.03 C 869.09, 444.15, 867.05, 446.53, 866.63, 446.27 C 866.22, 446.02, 866.05, 446.27, 866.33, 446.73 C 867.0, 447.8, 864.85, 454.02, 864.0, 453.5 C 863.64, 453.28, 863.5, 454.21, 863.75, 455.15 C 864.03, 456.21, 863.8, 456.99, 863.3, 456.69 C 862.8, 456.38, 862.54, 457.38, 862.79, 458.68 C 863.06, 460.11, 862.78, 460.98, 862.16, 460.6 C 861.59, 460.25, 861.3, 460.61, 861.57, 461.32 C 861.81, 461.94, 861.18, 467.7, 860.45, 471.6 C 859.07, 478.95, 858.9, 525.18, 860.25, 524.35 C 860.58, 524.14, 861.01, 525.45, 861.03, 526.69 C 861.04, 527.93, 862.39, 533.42, 863.43, 536.49 C 864.48, 539.57, 865.5, 544.05, 865.25, 544.49 C 865.0, 544.94, 865.14, 545.08, 865.5, 544.75 C 866.33, 544.0, 870.09, 550.04, 869.45, 551.09 C 869.19, 551.51, 869.41, 551.9, 869.85, 551.77 C 870.75, 551.52, 878.44, 559.33, 878.2, 560.25 C 878.11, 560.58, 878.42, 560.93, 878.75, 560.88 C 880.34, 560.63, 881.95, 561.28, 881.51, 561.99 C 881.22, 562.46, 881.8, 562.63, 882.61, 562.32 C 883.62, 561.93, 883.99, 562.21, 883.51, 562.99 C 883.1, 563.65, 883.21, 563.99, 883.74, 563.66 C 884.61, 563.12, 891.22, 565.45, 890.6, 566.07 C 889.77, 566.89, 915.53, 565.98, 918.23, 565.09 C 919.87, 564.55, 922.62, 564.26, 923.13, 564.58 C 923.72, 564.95, 923.95, 564.73, 923.6, 564.15 C 923.27, 563.63, 923.61, 563.0, 924.21, 563.0 C 924.79, 563.0, 927.64, 561.57, 929.29, 560.45 C 930.94, 559.33, 933.6, 558.25, 934.04, 558.53 C 934.48, 558.8, 934.97, 558.69, 934.91, 558.32 C 934.4, 555.42, 935.45, 517.22, 936.0, 518.5 C 936.55, 519.79, 936.88, 519.19, 936.93, 516.81 C 936.96, 515.19, 936.44, 512.77, 936.0, 512.5 C 935.56, 512.23, 935.06, 510.66, 935.1, 509.69 C 935.17, 508.05, 935.41, 508.13, 936.04, 510.0 C 936.47, 511.29, 936.62, 509.58, 936.34, 506.46 C 935.92, 501.85, 936.64, 499.31, 939.39, 495.71 L 942.99 491.0 C 927.96, 491.26, 925.05, 491.51, 929.5, 492.01 C 933.71, 492.48, 932.44, 492.7, 925.25, 492.75 C 920.74, 492.78, 915.22, 492.45, 915.4, 492.16 C 915.69, 491.69, 912.33, 491.56, 908.49, 491.88 C 907.53, 491.95, 907.93, 493.45, 909.57, 495.93 C 913.46, 501.81, 914.81, 544.63, 911.22, 548.23 C 908.96, 550.48, 897.18, 551.64, 896.43, 549.68 C 896.17, 549.0, 895.08, 548.42, 894.48, 548.64 C 893.05, 549.19, 886.86, 540.63, 887.35, 538.77 C 887.55, 537.99, 887.37, 537.27, 887.02, 537.49 C 884.8, 538.86, 881.54, 500.52, 882.46, 483.75 C 882.79, 477.71, 883.63, 470.27, 883.96, 470.47 C 884.29, 470.68, 884.45, 469.55, 884.24, 468.46 C 883.51, 464.66, 888.66, 448.67, 890.29, 449.68 C 890.76, 449.97, 890.92, 449.68, 890.6, 449.16 C 889.89, 448.01, 895.28, 442.83, 898.72, 441.37 C 901.51, 440.18, 909.27, 439.75, 908.61, 440.82 C 908.39, 441.18, 909.84, 441.38, 911.2, 441.19 C 912.89, 440.94, 913.97, 441.24, 913.59, 441.85 C 913.25, 442.41, 913.61, 442.7, 914.32, 442.43 C 914.95, 442.19, 916.65, 442.8, 917.37, 443.51 C 918.09, 444.23, 919.02, 444.68, 919.03, 444.32 C 919.05, 443.96, 919.89, 444.59, 920.53, 445.44 C 921.18, 446.3, 922.02, 446.86, 922.03, 446.44 C 922.05, 446.03, 925.32, 449.09, 927.87, 451.92 L 933.67 458.34 C 933.67, 454.36, 933.26, 452.58, 932.93, 453.11 C 932.61, 453.63, 931.8, 449.5, 931.49, 445.73 C 931.18, 441.96, 931.21, 436.47, 931.54, 435.93 C 931.96, 435.26, 931.72, 435.05, 931.02, 435.49 C 930.22, 435.98, 929.9, 434.05, 930.17, 430.28 L 930.61 424.27 C 926.2, 424.77, 922.52, 425.28, 921.75, 425.44 C 920.98, 425.6, 919.76, 425.43, 919.58, 425.12 C 918.87, 423.97, 895.58, 424.38, 891.5, 425.62 M 686.52 425.97 C 686.2, 426.49, 686.92, 428.36, 687.83, 429.32 C 691.09, 432.8, 692.0, 447.19, 692.0, 495.05 C 692.0, 542.91, 690.74, 562.19, 687.74, 560.34 C 687.27, 560.05, 687.06, 560.29, 687.36, 560.78 C 687.66, 561.26, 686.76, 562.81, 685.77, 563.55 L 683.5 565.23 C 686.6, 564.48, 698.26, 564.02, 705.92, 564.01 L 723.35 564.0 C 718.03, 558.34, 716.0, 549.36, 716.0, 534.07 L 716.0 516.08 C 725.38, 516.39, 730.55, 516.09, 730.29, 515.66 C 730.04, 515.25, 731.69, 514.98, 733.29, 515.17 C 734.97, 515.36, 736.55, 515.08, 736.27, 514.63 C 736.0, 514.2, 736.86, 513.99, 737.85, 514.25 C 738.8, 514.5, 739.69, 514.31, 739.44, 513.91 C 739.2, 513.51, 739.64, 513.0, 740.25, 513.0 C 740.85, 513.0, 744.38, 511.21, 746.55, 509.8 C 748.73, 508.39, 751.96, 506.73, 752.32, 506.82 C 752.69, 506.92, 752.83, 506.54, 752.59, 506.14 C 752.34, 505.74, 752.85, 504.54, 753.5, 504.0 C 762.11, 496.85, 766.11, 456.77, 759.48, 443.96 C 758.81, 442.67, 757.85, 440.6, 757.76, 440.26 C 757.67, 439.93, 756.0, 438.19, 754.78, 437.16 C 753.55, 436.13, 752.32, 434.3, 752.57, 433.88 C 752.83, 433.47, 752.69, 433.05, 752.32, 433.13 C 751.01, 433.43, 748.15, 431.56, 748.66, 430.74 C 748.95, 430.27, 748.71, 430.06, 748.24, 430.36 C 747.76, 430.65, 746.42, 430.31, 745.83, 429.76 C 745.25, 429.21, 743.8, 428.44, 743.25, 428.4 C 742.7, 428.36, 740.57, 428.22, 739.44, 428.15 C 738.32, 428.08, 737.14, 427.58, 737.35, 427.25 C 737.55, 426.92, 724.05, 426.66, 713.24, 426.79 C 699.15, 426.95, 688.36, 426.58, 687.96, 425.93 C 687.54, 425.25, 686.95, 425.27, 686.52, 425.97 M 958.29 425.65 C 957.65, 425.91, 958.49, 428.07, 960.11, 430.31 C 961.63, 432.41, 962.93, 435.6, 962.71, 436.72 C 962.53, 437.7, 962.77, 438.64, 963.14, 438.41 C 963.52, 438.18, 964.0, 469.47, 964.0, 494.28 C 964.0, 541.78, 962.89, 558.26, 959.41, 562.1 C 958.06, 563.59, 963.86, 564.0, 986.4, 564.0 C 1001.51, 564.0, 1014.83, 564.47, 1014.5, 565.0 C 1014.23, 565.44, 1014.48, 566.0, 1014.94, 566.0 C 1015.41, 566.0, 1016.0, 565.44, 1016.0, 565.0 C 1016.0, 564.56, 1017.09, 564.0, 1017.94, 564.0 C 1018.8, 564.0, 1020.23, 564.56, 1020.5, 565.0 C 1021.32, 566.33, 1022.85, 565.76, 1022.3, 564.34 C 1021.93, 563.36, 1022.22, 563.02, 1023.0, 563.5 C 1023.79, 563.99, 1024.07, 563.62, 1023.67, 562.58 C 1022.88, 560.53, 1024.31, 550.07, 1025.29, 550.68 C 1025.76, 550.97, 1025.92, 550.68, 1025.59, 550.15 C 1024.8, 548.87, 1026.24, 540.03, 1027.15, 540.59 C 1027.58, 540.86, 1027.73, 539.78, 1027.43, 538.58 C 1027.11, 537.29, 1027.34, 536.0, 1027.89, 536.0 C 1028.38, 536.0, 1029.0, 535.53, 1029.0, 535.17 C 1029.0, 534.8, 1028.16, 534.33, 1027.5, 534.33 C 1026.84, 534.33, 1026.24, 534.57, 1026.43, 534.76 C 1027.1, 535.43, 1021.48, 540.81, 1020.61, 540.31 C 1020.12, 540.03, 1019.92, 540.15, 1020.26, 540.51 C 1021.02, 541.35, 1015.71, 544.94, 1014.66, 544.29 C 1014.23, 544.03, 1014.06, 544.29, 1014.35, 544.76 C 1015.02, 545.84, 1005.1, 549.26, 1002.94, 548.69 C 1002.08, 548.47, 1001.31, 548.69, 1001.56, 549.09 C 1001.81, 549.5, 997.95, 550.0, 994.52, 550.0 L 986.92 550.0 C 987.4, 454.64, 988.26, 433.58, 992.69, 427.0 C 993.47, 425.84, 993.63, 425.17, 992.99, 425.75 C 991.59, 427.01, 958.72, 427.26, 959.5, 426.0 C 960.03, 425.14, 959.75, 425.06, 958.29, 425.65 M 769.39 429.5 C 772.5, 432.21, 778.17, 442.12, 777.54, 443.75 C 777.31, 444.35, 777.52, 444.8, 777.9, 444.56 C 778.8, 444.0, 780.11, 449.02, 779.38, 450.2 C 779.08, 450.69, 779.24, 450.97, 779.67, 450.7 C 780.48, 450.2, 797.54, 499.72, 797.42, 502.25 C 797.39, 503.02, 797.78, 504.0, 798.12, 504.0 C 799.65, 504.0, 800.73, 515.81, 800.52, 530.18 C 800.23, 549.8, 798.84, 560.64, 796.76, 559.36 C 796.28, 559.06, 796.05, 559.28, 796.36, 559.76 C 796.65, 560.24, 796.13, 561.72, 795.44, 562.42 C 794.29, 563.57, 798.74, 564.0, 811.9, 564.0 L 829.94 564.0 C 826.71, 559.24, 825.08, 555.34, 825.28, 554.29 C 825.47, 553.31, 825.23, 552.36, 824.86, 552.59 C 824.48, 552.82, 824.0, 541.48, 824.0, 532.33 L 824.0 511.54 C 830.45, 491.45, 834.94, 479.46, 835.36, 479.72 C 835.78, 479.98, 835.9, 479.65, 835.58, 479.13 C 834.83, 477.92, 837.11, 470.95, 838.07, 471.54 C 838.47, 471.79, 838.68, 471.32, 838.44, 470.7 C 837.66, 468.66, 852.01, 431.0, 853.58, 431.0 C 853.82, 431.0, 853.72, 431.7, 853.4, 432.25 C 853.08, 432.8, 853.1, 433.13, 853.42, 432.83 C 853.75, 432.54, 854.03, 431.98, 853.91, 431.83 C 853.8, 431.69, 854.34, 430.24, 854.87, 429.25 L 856.07 427.0 C 835.57, 427.0, 823.0, 427.25, 823.0, 427.45 C 823.0, 427.65, 824.4, 429.31, 825.5, 430.41 C 827.4, 432.31, 829.04, 443.76, 827.25, 442.65 C 826.92, 442.45, 826.44, 443.4, 826.4, 444.35 C 826.25, 447.55, 823.22, 456.9, 822.53, 456.28 C 822.16, 455.94, 822.05, 456.14, 822.34, 456.65 C 823.02, 457.84, 821.79, 463.99, 820.97, 463.48 C 820.63, 463.27, 820.5, 464.21, 820.75, 465.15 C 821.09, 466.44, 820.78, 466.99, 820.0, 466.5 C 819.34, 466.09, 819.02, 466.22, 819.35, 466.76 C 820.05, 467.89, 816.67, 481.91, 815.82, 481.39 C 815.46, 481.17, 814.95, 482.73, 814.91, 484.19 C 814.82, 487.42, 811.02, 476.68, 810.72, 472.35 C 810.62, 470.97, 810.15, 469.41, 809.88, 469.58 C 809.1, 470.06, 805.96, 457.87, 806.6, 456.84 C 806.93, 456.31, 806.75, 456.04, 806.27, 456.33 C 805.79, 456.63, 804.63, 454.72, 804.1, 452.74 C 803.6, 450.87, 802.12, 445.42, 801.45, 443.0 C 800.16, 438.34, 800.67, 430.68, 802.21, 431.63 C 802.77, 431.98, 802.92, 431.68, 802.51, 431.02 C 802.11, 430.36, 802.76, 428.93, 803.85, 428.11 C 805.44, 426.91, 800.87, 426.5, 785.97, 426.5 L 765.95 426.5 M 1060.0 427.01 C 1060.0, 427.23, 1061.17, 428.25, 1062.1, 428.83 C 1063.02, 429.41, 1063.89, 430.45, 1063.64, 430.69 C 1063.4, 430.93, 1063.98, 432.12, 1064.68, 432.82 C 1066.8, 434.94, 1060.69, 472.25, 1058.54, 470.29 C 1058.16, 469.94, 1058.08, 470.19, 1058.39, 470.74 C 1059.08, 471.94, 1056.84, 484.02, 1056.02, 483.51 C 1055.7, 483.31, 1055.57, 484.53, 1055.79, 485.68 C 1056.09, 487.26, 1055.77, 487.98, 1054.99, 487.49 C 1054.28, 487.05, 1054.04, 487.25, 1054.46, 487.94 C 1055.17, 489.09, 1052.88, 501.04, 1052.05, 500.53 C 1051.75, 500.34, 1051.62, 501.84, 1051.82, 503.19 C 1052.06, 504.89, 1051.76, 505.97, 1051.15, 505.59 C 1050.58, 505.24, 1050.31, 505.65, 1050.61, 506.43 C 1051.17, 507.88, 1046.74, 526.96, 1045.96, 526.48 C 1045.66, 526.29, 1045.55, 527.44, 1045.76, 528.53 C 1045.99, 529.73, 1045.63, 531.0, 1045.06, 531.0 C 1044.54, 531.0, 1044.23, 531.57, 1044.51, 532.01 C 1045.07, 532.92, 1042.83, 544.0, 1042.09, 544.0 C 1041.83, 544.0, 1041.43, 545.8, 1041.38, 547.21 C 1041.33, 548.62, 1040.69, 550.6, 1040.24, 550.75 C 1039.79, 550.9, 1039.52, 552.28, 1039.76, 553.2 C 1040.09, 554.45, 1039.78, 554.98, 1039.0, 554.5 C 1038.29, 554.06, 1038.03, 554.24, 1038.44, 554.9 C 1038.78, 555.45, 1037.77, 558.26, 1036.58, 560.06 L 1033.97 564.0 C 1058.86, 564.0, 1064.94, 563.59, 1063.56, 562.06 C 1062.77, 561.19, 1062.22, 559.46, 1062.56, 558.91 C 1062.93, 558.31, 1062.76, 558.03, 1062.22, 558.37 C 1060.8, 559.24, 1059.94, 549.57, 1060.97, 544.37 C 1062.61, 536.11, 1064.5, 535.0, 1076.94, 535.0 L 1090.74 535.0 C 1093.57, 549.37, 1092.18, 561.46, 1088.71, 562.37 C 1084.75, 563.4, 1092.33, 564.14, 1105.92, 564.05 C 1115.46, 563.98, 1124.0, 564.41, 1124.0, 564.96 C 1124.0, 565.42, 1124.56, 566.0, 1125.0, 566.0 C 1126.19, 566.0, 1125.87, 563.73, 1124.49, 562.35 C 1123.83, 561.68, 1123.35, 560.24, 1123.64, 559.76 C 1123.94, 559.29, 1123.73, 559.05, 1123.26, 559.34 C 1122.2, 559.99, 1118.8, 552.96, 1119.41, 551.38 C 1119.66, 550.73, 1119.52, 550.18, 1119.17, 550.4 C 1118.23, 550.98, 1107.8, 503.96, 1108.48, 502.2 C 1108.7, 501.63, 1108.5, 501.19, 1108.13, 501.42 C 1107.39, 501.87, 1102.71, 481.5, 1102.59, 477.33 C 1102.55, 475.94, 1102.23, 474.44, 1102.01, 474.66 C 1101.66, 475.01, 1099.32, 465.29, 1095.44, 447.32 C 1093.98, 440.59, 1094.22, 430.44, 1095.82, 430.77 C 1096.41, 430.89, 1096.82, 430.51, 1096.56, 430.09 C 1096.3, 429.67, 1096.54, 428.79, 1096.98, 428.51 C 1099.14, 427.18, 1093.07, 426.5, 1079.0, 426.5 C 1070.64, 426.5, 1060.0, 426.78, 1060.0, 427.01 M 716.0 471.0 L 716.0 500.0 C 726.15, 499.99, 737.11, 494.61, 735.45, 491.92 C 735.09, 491.33, 735.23, 491.02, 735.73, 491.33 C 736.79, 491.99, 739.24, 486.2, 738.44, 484.91 C 738.04, 484.26, 738.28, 484.06, 738.96, 484.48 C 739.74, 484.96, 740.09, 483.69, 739.85, 481.22 C 739.68, 479.44, 739.89, 477.43, 740.23, 477.64 C 740.96, 478.09, 741.07, 463.03, 740.36, 458.77 C 740.09, 457.13, 739.26, 455.34, 738.88, 455.57 C 738.5, 455.81, 738.34, 455.29, 738.58, 454.64 C 739.6, 451.99, 731.75, 442.5, 729.32, 443.43 C 728.74, 443.65, 728.0, 443.39, 728.0, 442.97 C 728.0, 442.54, 724.64, 442.0, 722.0, 442.0 L 716.0 442.0 M 1075.62 471.52 C 1074.83, 475.03, 1073.08, 483.7, 1072.49, 487.0 C 1071.9, 490.3, 1069.99, 500.62, 1069.07, 505.42 C 1066.65, 518.19, 1067.63, 520.0, 1076.94, 520.0 C 1081.32, 520.0, 1087.18, 519.52, 1087.41, 519.15 C 1088.1, 518.04, 1085.34, 504.98, 1084.57, 505.69 C 1084.16, 506.06, 1084.1, 505.77, 1084.45, 505.17 C 1085.19, 503.89, 1082.87, 487.96, 1082.03, 488.49 C 1081.7, 488.69, 1081.49, 487.7, 1081.65, 486.72 C 1081.81, 485.74, 1080.72, 478.63, 1079.71, 474.02 L 1077.41 463.54 M 338.0 471.86 C 338.0, 472.91, 326.23, 478.9, 325.49, 478.23 C 325.13, 477.91, 325.08, 478.2, 325.4, 478.75 C 325.72, 479.3, 325.55, 480.0, 325.1, 480.0 C 324.66, 480.0, 322.04, 481.39, 320.43, 482.49 C 318.81, 483.58, 316.27, 484.67, 315.88, 484.43 C 315.49, 484.19, 315.0, 484.51, 315.0, 485.0 C 315.0, 485.49, 314.44, 485.77, 314.0, 485.5 C 313.56, 485.23, 313.0, 485.48, 313.0, 485.96 C 313.0, 487.13, 306.64, 490.89, 305.67, 490.29 C 305.23, 490.03, 305.09, 490.33, 305.4, 490.85 C 305.92, 491.69, 304.38, 492.39, 302.68, 492.09 C 302.31, 492.03, 302.27, 492.62, 302.59, 493.14 C 303.0, 493.8, 302.56, 494.04, 301.61, 493.68 C 300.8, 493.37, 300.22, 493.54, 300.51, 494.01 C 300.78, 494.45, 300.6, 495.0, 300.2, 495.0 C 299.79, 495.0, 297.29, 496.35, 295.72, 497.42 C 294.16, 498.48, 291.84, 499.6, 291.58, 499.42 C 291.33, 499.23, 291.22, 499.31, 291.39, 499.56 C 291.56, 499.8, 290.15, 501.9, 288.86, 503.31 C 287.57, 504.71, 285.31, 508.6, 284.81, 510.25 C 284.31, 511.9, 283.35, 514.0, 283.09, 514.0 C 282.83, 514.0, 282.5, 518.71, 282.5, 522.4 C 282.5, 526.1, 283.0, 530.5, 283.38, 530.26 C 283.77, 530.02, 284.01, 531.45, 283.81, 532.8 C 283.61, 534.16, 283.75, 535.65, 284.06, 535.46 C 284.82, 534.99, 285.99, 541.21, 285.34, 542.26 C 285.01, 542.79, 285.35, 542.9, 286.01, 542.49 C 286.81, 542.0, 287.05, 542.43, 286.62, 543.55 C 286.3, 544.38, 286.29, 545.05, 286.59, 544.74 C 286.9, 544.43, 288.6, 546.62, 289.62, 548.65 C 294.19, 557.66, 306.52, 569.13, 314.11, 571.42 C 319.69, 573.1, 331.67, 569.97, 349.0, 562.29 C 350.98, 561.41, 356.38, 559.02, 358.65, 558.02 C 360.98, 557.0, 364.48, 556.18, 365.05, 556.53 C 365.7, 556.93, 365.97, 556.75, 365.6, 556.15 C 365.21, 555.54, 366.25, 555.0, 367.82, 555.0 C 369.11, 555.0, 371.52, 554.05, 372.13, 553.31 C 373.07, 552.14, 373.04, 551.89, 372.01, 552.51 C 371.36, 552.91, 368.8, 553.26, 367.44, 553.14 C 366.08, 553.02, 361.36, 554.01, 359.02, 554.9 C 356.67, 555.79, 353.22, 556.63, 352.85, 556.4 C 352.47, 556.17, 352.0, 556.41, 352.0, 556.82 C 352.0, 557.23, 350.18, 558.44, 348.75, 558.98 C 347.32, 559.51, 343.37, 561.31, 341.7, 562.19 C 340.03, 563.06, 337.07, 563.86, 336.4, 563.6 C 335.74, 563.35, 335.19, 563.5, 335.43, 563.88 C 336.17, 565.09, 325.59, 568.33, 320.9, 568.33 C 311.1, 568.33, 296.08, 552.6, 291.1, 537.1 C 290.04, 533.81, 289.98, 532.87, 290.9, 533.44 C 291.3, 533.68, 291.02, 531.39, 290.4, 529.34 C 289.07, 524.93, 288.86, 512.49, 290.06, 509.31 C 291.1, 506.56, 296.22, 501.02, 297.18, 501.61 C 297.56, 501.85, 297.9, 501.52, 297.77, 501.02 C 297.49, 499.86, 316.17, 488.99, 317.27, 489.67 C 317.75, 489.97, 317.93, 489.69, 317.6, 489.15 C 317.28, 488.65, 317.48, 488.0, 317.94, 488.0 C 319.59, 488.0, 320.78, 487.33, 321.85, 485.8 C 322.45, 484.95, 324.02, 484.18, 324.66, 484.42 C 325.29, 484.67, 325.81, 484.5, 325.58, 484.13 C 325.35, 483.76, 327.13, 482.22, 328.76, 481.39 C 330.39, 480.56, 333.25, 478.77, 333.86, 478.19 C 334.48, 477.62, 336.01, 477.17, 336.6, 477.4 C 337.83, 477.87, 338.66, 476.79, 339.38, 473.75 C 339.69, 472.45, 339.5, 471.0, 339.02, 471.0 C 338.57, 471.0, 338.0, 471.48, 338.0, 471.86 M 334.4 483.15 C 334.03, 483.76, 334.35, 483.96, 335.1, 483.57 C 335.71, 483.24, 335.1, 483.98, 334.0, 484.89 C 332.06, 486.5, 330.04, 487.33, 328.68, 487.09 C 328.31, 487.03, 328.13, 487.4, 328.35, 487.75 C 328.57, 488.1, 327.18, 489.51, 325.87, 490.26 C 324.47, 491.06, 323.27, 491.31, 323.6, 490.73 C 323.91, 490.19, 323.06, 490.77, 322.09, 491.77 C 321.12, 492.77, 319.41, 493.76, 319.05, 493.53 C 318.68, 493.3, 317.88, 493.88, 317.61, 494.57 C 317.35, 495.25, 316.45, 495.78, 316.01, 495.5 C 315.56, 495.23, 315.0, 495.35, 315.0, 495.73 C 315.0, 496.1, 313.32, 497.56, 312.0, 498.34 C 310.68, 499.12, 309.0, 499.8, 309.0, 499.56 C 309.0, 499.31, 307.86, 500.14, 306.96, 501.04 C 306.07, 501.93, 304.39, 502.74, 303.96, 502.48 C 303.54, 502.22, 303.0, 502.51, 303.0, 503.0 C 303.0, 503.49, 302.35, 503.72, 301.85, 503.4 C 301.29, 503.06, 301.04, 503.26, 301.37, 503.8 C 301.67, 504.28, 300.92, 505.51, 300.03, 505.99 C 299.14, 506.46, 297.98, 506.63, 297.96, 506.29 C 297.87, 504.64, 294.04, 513.4, 293.93, 515.5 C 293.85, 516.91, 293.52, 517.57, 293.31, 516.74 C 293.11, 515.96, 292.36, 515.27, 291.98, 515.51 C 291.6, 515.75, 291.71, 517.74, 292.18, 519.07 C 292.64, 520.4, 292.9, 523.75, 292.64, 525.05 C 292.36, 526.45, 292.59, 528.0, 293.08, 528.0 C 293.54, 528.0, 293.81, 528.5, 293.56, 528.9 C 293.32, 529.29, 293.82, 531.35, 294.45, 532.57 C 295.09, 533.8, 295.61, 535.82, 295.39, 536.18 C 295.17, 536.54, 295.48, 537.0, 295.94, 537.0 C 296.41, 537.0, 297.0, 537.79, 297.0, 538.42 C 297.0, 541.72, 306.67, 556.0, 308.9, 556.0 C 310.08, 556.0, 309.91, 554.78, 308.39, 552.22 C 307.21, 550.22, 307.21, 550.01, 308.4, 551.45 C 310.48, 553.97, 314.88, 554.04, 314.42, 551.55 C 314.12, 549.91, 314.57, 549.28, 315.74, 549.71 C 316.93, 550.16, 317.09, 549.87, 316.24, 548.82 C 315.41, 547.8, 315.54, 546.8, 316.6, 545.92 C 317.7, 545.0, 318.66, 545.18, 319.61, 546.48 C 320.7, 547.97, 321.01, 547.96, 321.06, 546.44 C 321.11, 545.1, 321.41, 545.21, 322.06, 546.81 C 322.46, 547.83, 323.52, 548.79, 323.95, 548.53 C 324.37, 548.27, 324.57, 547.05, 324.31, 546.35 C 323.89, 545.28, 324.39, 545.14, 325.85, 545.92 C 327.13, 546.61, 328.0, 546.61, 328.0, 545.93 C 328.0, 545.43, 328.79, 545.09, 329.42, 545.33 C 330.04, 545.57, 331.15, 545.04, 331.41, 544.38 C 331.66, 543.71, 331.43, 543.23, 330.99, 543.51 C 330.55, 543.78, 330.0, 543.57, 330.0, 543.13 C 330.0, 542.7, 329.02, 541.86, 328.25, 541.64 C 327.48, 541.41, 328.18, 541.23, 329.5, 541.31 C 331.56, 541.44, 332.4, 540.8, 332.19, 539.25 C 332.05, 538.26, 332.47, 537.0, 332.94, 537.0 C 333.41, 537.0, 334.0, 537.82, 334.0, 538.47 C 334.0, 539.18, 334.77, 539.64, 335.5, 539.36 C 336.18, 539.1, 337.0, 539.48, 337.0, 540.06 C 337.0, 540.62, 337.3, 541.04, 337.53, 540.8 C 338.2, 540.13, 335.7, 534.34, 334.26, 533.25 C 333.52, 532.69, 333.27, 532.0, 333.8, 532.0 C 334.32, 532.0, 335.68, 533.12, 336.23, 534.0 C 336.78, 534.88, 338.19, 536.0, 338.74, 536.0 C 339.29, 536.0, 340.0, 536.47, 340.0, 536.83 C 340.0, 537.2, 340.84, 537.67, 341.5, 537.67 C 343.3, 537.67, 342.74, 535.58, 340.45, 533.78 C 339.32, 532.9, 338.21, 531.46, 338.45, 531.22 C 338.7, 530.97, 340.41, 531.97, 341.5, 533.0 C 342.6, 534.03, 344.0, 534.74, 344.0, 534.27 C 344.0, 533.79, 345.25, 533.46, 346.25, 533.68 C 347.31, 533.91, 347.92, 533.73, 347.4, 533.34 C 346.92, 532.97, 346.31, 531.41, 346.32, 530.56 C 346.33, 529.11, 346.7, 529.17, 347.79, 530.81 C 349.99, 534.12, 350.38, 532.0, 348.31, 528.0 C 347.17, 525.8, 345.65, 521.37, 345.61, 520.1 C 345.56, 518.82, 344.99, 517.51, 344.59, 517.75 C 344.19, 518.0, 344.0, 517.1, 344.25, 516.15 C 344.5, 515.2, 344.43, 514.24, 344.12, 514.42 C 343.33, 514.91, 339.82, 502.1, 340.46, 501.07 C 340.75, 500.6, 340.47, 500.0, 339.95, 500.0 C 339.35, 500.0, 338.97, 498.08, 339.17, 496.0 C 339.34, 494.24, 339.05, 492.0, 338.66, 492.0 C 338.27, 492.0, 338.03, 490.6, 338.25, 489.5 C 338.46, 488.4, 338.32, 487.0, 338.0, 487.0 C 337.68, 487.0, 337.43, 485.6, 337.55, 484.5 C 337.78, 482.41, 335.47, 481.43, 334.4, 483.15 M 278.0 524.94 C 278.0, 525.41, 277.24, 526.0, 276.63, 526.0 C 276.03, 526.0, 273.87, 527.1, 272.77, 527.97 C 271.67, 528.83, 269.91, 529.58, 269.63, 529.3 C 269.35, 529.02, 269.0, 529.35, 269.0, 529.89 C 269.0, 530.43, 268.44, 530.77, 268.0, 530.5 C 267.56, 530.23, 267.0, 530.51, 267.0, 531.0 C 267.0, 531.49, 266.5, 531.81, 266.11, 531.57 C 265.71, 531.32, 264.87, 531.91, 264.6, 532.61 C 264.31, 533.36, 263.17, 533.89, 262.44, 533.62 C 261.75, 533.35, 261.23, 533.56, 261.49, 533.98 C 261.75, 534.4, 260.53, 535.33, 259.32, 535.63 C 258.1, 535.94, 255.7, 537.24, 255.03, 537.96 C 254.08, 538.97, 253.88, 539.0, 254.5, 538.05 C 255.2, 536.97, 254.97, 536.91, 253.76, 537.86 C 253.0, 538.46, 252.3, 539.68, 252.53, 540.04 C 252.75, 540.4, 252.45, 541.22, 252.0, 541.5 C 251.55, 541.78, 251.36, 542.8, 251.68, 543.32 C 252.0, 543.87, 251.48, 543.77, 250.7, 543.14 C 249.96, 542.54, 249.36, 541.22, 249.63, 540.79 C 249.9, 540.35, 249.0, 540.46, 248.03, 540.99 C 244.66, 542.79, 242.25, 551.2, 243.14, 558.0 C 243.58, 561.3, 244.21, 566.45, 244.28, 567.2 C 244.34, 567.95, 244.67, 568.66, 244.87, 568.47 C 245.27, 568.06, 247.93, 571.35, 247.97, 572.31 C 247.98, 572.67, 247.35, 572.72, 246.84, 572.4 C 246.27, 572.05, 246.05, 572.28, 246.41, 572.86 C 246.73, 573.38, 247.58, 573.76, 247.92, 573.55 C 248.27, 573.33, 249.35, 574.48, 249.86, 575.59 C 250.36, 576.7, 251.57, 577.77, 252.0, 577.5 C 252.44, 577.23, 253.0, 577.34, 253.0, 577.7 C 253.0, 578.06, 254.1, 579.21, 254.97, 579.75 C 257.18, 581.13, 252.23, 571.74, 249.71, 569.77 C 248.74, 569.01, 248.01, 568.03, 248.41, 568.02 C 248.8, 568.01, 248.24, 566.82, 247.41, 565.9 C 245.29, 563.56, 244.5, 548.66, 246.4, 547.08 C 247.1, 546.5, 248.0, 544.95, 248.0, 544.32 C 248.0, 543.69, 248.47, 543.17, 248.83, 543.4 C 249.2, 543.62, 249.42, 545.61, 249.22, 546.95 C 249.02, 548.28, 248.28, 549.67, 247.89, 549.43 C 247.5, 549.19, 247.01, 551.86, 247.01, 554.19 C 247.02, 556.79, 247.46, 558.82, 247.87, 558.18 C 248.31, 557.48, 249.01, 559.06, 249.35, 561.52 C 249.73, 564.3, 251.59, 568.0, 253.98, 570.71 C 255.73, 572.71, 257.6, 575.83, 257.32, 576.29 C 257.0, 576.81, 257.51, 577.02, 258.34, 576.7 C 259.07, 576.42, 260.0, 576.61, 260.0, 577.03 C 260.0, 577.46, 260.59, 578.0, 261.06, 578.0 C 261.52, 578.0, 261.78, 577.46, 261.52, 577.03 C 261.26, 576.61, 262.06, 575.35, 262.96, 574.79 C 263.86, 574.23, 265.0, 572.81, 265.0, 572.26 C 265.0, 571.71, 265.58, 571.0, 266.04, 571.0 C 266.5, 571.0, 266.92, 570.08, 266.79, 569.35 C 266.66, 568.63, 267.22, 567.46, 267.78, 567.26 C 268.34, 567.06, 268.9, 567.37, 268.78, 567.81 C 268.66, 568.24, 269.06, 568.72, 269.5, 568.65 C 269.94, 568.58, 270.48, 567.24, 270.46, 566.25 C 270.44, 565.26, 271.0, 563.91, 271.46, 563.85 C 271.92, 563.78, 273.06, 563.57, 273.5, 563.46 C 273.94, 563.36, 275.23, 563.17, 275.81, 563.12 C 276.39, 563.07, 276.73, 562.38, 276.43, 561.89 C 276.04, 561.26, 275.43, 561.31, 275.0, 562.0 C 274.6, 562.64, 273.95, 562.72, 273.61, 562.18 C 272.94, 561.1, 276.67, 559.94, 278.52, 560.65 C 279.52, 561.03, 280.0, 560.81, 279.61, 560.17 C 278.74, 558.77, 280.52, 559.16, 282.3, 560.75 C 283.82, 562.11, 284.11, 561.94, 283.58, 560.0 C 283.01, 557.91, 285.49, 560.08, 286.33, 562.39 C 286.5, 562.88, 287.08, 563.17, 287.36, 562.92 C 287.85, 562.47, 283.05, 549.35, 279.87, 542.43 C 278.26, 538.92, 277.56, 533.77, 279.0, 536.0 C 279.43, 536.66, 279.97, 536.94, 279.97, 536.5 C 279.97, 534.95, 277.78, 532.66, 277.34, 533.75 C 277.12, 534.3, 275.73, 535.0, 274.86, 535.0 C 273.99, 535.0, 273.19, 535.5, 273.44, 535.89 C 274.0, 536.81, 270.88, 538.04, 269.75, 537.35 C 269.29, 537.06, 269.05, 537.27, 269.33, 537.73 C 269.82, 538.52, 266.34, 540.34, 262.0, 541.57 C 260.9, 541.88, 258.21, 543.66, 257.19, 544.75 C 256.18, 545.84, 254.5, 546.83, 254.2, 546.53 C 253.89, 546.22, 254.39, 545.18, 255.09, 544.67 C 255.79, 544.15, 256.46, 542.86, 256.29, 542.36 C 255.99, 541.46, 262.32, 536.92, 264.27, 536.64 C 264.82, 536.56, 266.89, 535.49, 267.98, 534.73 C 269.06, 533.97, 270.96, 533.0, 271.36, 533.0 C 271.76, 533.0, 273.48, 531.7, 274.42, 530.68 C 275.37, 529.66, 277.33, 528.61, 277.93, 528.81 C 278.63, 529.04, 278.91, 528.66, 278.51, 528.02 C 278.17, 527.47, 278.43, 526.35, 278.98, 526.01 C 279.68, 525.58, 279.74, 524.96, 279.11, 524.57 C 278.62, 524.27, 278.0, 524.48, 278.0, 524.94 M 248.85 532.88 C 249.5, 533.3, 246.97, 533.68, 243.93, 533.62 C 237.34, 533.49, 228.0, 542.39, 228.0, 548.79 C 228.0, 549.82, 227.58, 550.86, 227.25, 550.66 C 226.92, 550.46, 226.5, 553.5, 226.5, 556.1 C 226.5, 558.7, 226.8, 562.0, 227.03, 562.0 C 227.27, 562.0, 227.7, 563.26, 227.8, 564.25 C 227.9, 565.24, 228.17, 567.62, 228.27, 568.5 C 228.37, 569.38, 229.23, 571.27, 229.81, 571.88 C 230.38, 572.49, 230.81, 574.05, 230.57, 574.68 C 230.33, 575.31, 230.52, 575.8, 230.91, 575.56 C 231.82, 575.0, 233.04, 578.13, 232.35, 579.25 C 232.04, 579.75, 232.3, 579.93, 232.84, 579.6 C 233.68, 579.08, 234.39, 580.62, 234.09, 582.32 C 234.03, 582.69, 234.52, 582.79, 234.97, 582.51 C 235.72, 582.05, 236.38, 583.69, 236.09, 585.32 C 236.03, 585.69, 236.46, 585.83, 236.86, 585.59 C 237.63, 585.11, 239.81, 587.16, 239.89, 588.44 C 239.91, 588.85, 240.83, 589.5, 241.52, 589.61 C 243.39, 589.88, 245.92, 592.31, 245.33, 593.27 C 245.05, 593.73, 245.25, 593.96, 245.7, 593.69 C 246.14, 593.41, 248.87, 594.17, 250.56, 595.03 C 254.43, 597.0, 266.45, 597.2, 271.02, 595.38 C 275.54, 593.57, 274.01, 591.59, 267.98, 591.42 C 265.16, 591.35, 261.4, 590.71, 261.26, 590.27 C 261.11, 589.84, 259.53, 589.56, 258.43, 589.77 C 256.23, 590.19, 251.83, 587.08, 252.68, 585.71 C 252.96, 585.26, 252.75, 585.03, 252.32, 585.3 C 250.24, 586.59, 244.12, 578.47, 240.78, 570.0 C 239.13, 565.81, 237.53, 552.06, 238.92, 554.0 C 239.58, 554.92, 239.76, 554.27, 239.39, 552.34 C 238.71, 548.79, 241.26, 542.14, 244.52, 538.98 C 246.05, 537.5, 248.0, 536.0, 248.0, 536.3 C 248.0, 536.61, 249.01, 536.02, 249.81, 535.25 C 251.2, 533.9, 250.44, 532.03, 248.5, 532.03 C 248.06, 532.03, 248.25, 532.51, 248.85, 532.88" stroke="none" fill="#ceaa4b" fill-rule="evenodd" /></svg>