<svg xmlns="http://www.w3.org/2000/svg" width="1536" height="1024" viewBox="0 0 1536 1024" version="1.1"><path d="" stroke="none" fill="#5a532e" fill-rule="evenodd"/><path d="M 391.833 325.906 C 391.650 326.404, 386.483 326.967, 380.351 327.156 C 374.219 327.345, 369.445 327.898, 369.743 328.384 C 370.041 328.871, 368.881 329.063, 367.166 328.811 C 365.452 328.559, 363.925 328.612, 363.774 328.928 C 363.263 329.997, 349.926 333.072, 348.805 332.379 C 348.082 331.932, 347.975 332.151, 348.502 333.003 C 349.106 333.980, 348.762 334.171, 347.155 333.751 C 345.759 333.386, 345.232 333.566, 345.663 334.263 C 346.084 334.944, 345.717 335.105, 344.664 334.701 C 343.748 334.350, 343 334.546, 343 335.138 C 343 335.730, 342.325 335.955, 341.500 335.638 C 340.675 335.322, 340 335.468, 340 335.964 C 340 336.460, 338.988 337.176, 337.750 337.557 C 336.512 337.937, 332.052 339.957, 327.839 342.046 C 323.625 344.135, 319.840 345.541, 319.428 345.172 C 319.016 344.802, 318.964 345, 319.312 345.610 C 319.682 346.258, 318.289 347.468, 315.973 348.512 C 313.788 349.498, 312 350.655, 312 351.084 C 312 352.013, 307.928 353.517, 306.500 353.115 C 305.950 352.960, 305.832 353.165, 306.237 353.571 C 306.926 354.260, 299.383 360.500, 297.861 360.500 C 297.479 360.500, 296.792 360.910, 296.333 361.410 C 295.841 361.948, 296.113 361.999, 297 361.535 C 297.825 361.103, 296.713 362.268, 294.528 364.125 C 292.344 365.981, 290.094 367.350, 289.528 367.167 C 288.963 366.983, 288.844 367.177, 289.264 367.597 C 290.156 368.489, 285.049 374.148, 283.960 373.475 C 283.557 373.226, 282.671 373.692, 281.991 374.511 C 281.311 375.330, 281.064 376, 281.442 376 C 281.819 376, 279.487 379.262, 276.258 383.250 C 273.028 387.238, 268.873 392.637, 267.024 395.250 C 265.174 397.863, 263.261 400, 262.771 400 C 262.282 400, 262.143 400.422, 262.462 400.939 C 262.781 401.455, 262.245 402.341, 261.271 402.908 C 260.297 403.475, 259.849 403.953, 260.276 403.970 C 261.512 404.018, 258.072 410, 256.808 410 C 256.180 410, 255.946 410.279, 256.287 410.620 C 256.628 410.962, 255.644 413.774, 254.100 416.870 C 252.556 419.967, 250.491 424.637, 249.511 427.250 C 248.530 429.863, 247.313 432, 246.805 432 C 246.297 432, 246.099 432.352, 246.365 432.782 C 246.976 433.771, 241.555 452.221, 240.858 451.524 C 240.574 451.241, 240.361 451.794, 240.385 452.754 C 240.476 456.510, 238.692 465, 237.812 465 C 237.301 465, 237.155 465.442, 237.489 465.983 C 237.823 466.523, 237.347 472.710, 236.430 479.733 C 235.219 489.015, 234.921 496.321, 235.337 506.500 C 236.104 525.236, 236.146 525.356, 241.749 524.725 C 246.300 524.212, 250.709 521.208, 248.250 520.297 C 247.563 520.042, 247 519.169, 247 518.358 C 247 517.546, 247.450 517.160, 248 517.500 C 248.581 517.859, 248.971 516.941, 248.930 515.309 C 248.868 512.838, 248.756 512.741, 248 514.500 C 247.472 515.730, 247.152 510.723, 247.170 501.500 C 247.186 493.250, 247.505 487.595, 247.879 488.933 C 248.265 490.315, 248.556 487.940, 248.554 483.433 C 248.548 473.972, 251.833 454.779, 253.302 455.686 C 253.856 456.029, 254.016 455.836, 253.659 455.257 C 252.882 454.001, 253.970 447.866, 254.872 448.415 C 255.217 448.626, 255.584 447.381, 255.687 445.649 C 256.115 438.409, 271.016 407.337, 273.407 408.698 C 274.008 409.041, 274.171 408.957, 273.769 408.513 C 272.755 407.392, 277.090 399.938, 278.316 400.695 C 278.862 401.033, 279.035 400.865, 278.699 400.322 C 277.414 398.243, 299.255 373.422, 301.272 374.668 C 301.863 375.033, 302.010 374.825, 301.613 374.183 C 297.681 367.820, 361.063 337.430, 372.194 340.340 C 373.189 340.601, 373.791 340.470, 373.531 340.051 C 372.962 339.129, 385.431 337.994, 395.901 338.015 C 401.203 338.026, 403.047 338.326, 402 339.006 C 400.992 339.662, 402.601 339.769, 406.907 339.332 C 410.762 338.941, 413.086 339.052, 412.741 339.610 C 412.412 340.143, 413.887 340.373, 416.216 340.151 C 418.573 339.926, 420.022 340.156, 419.685 340.701 C 419.352 341.240, 420.419 341.445, 422.195 341.185 C 424.313 340.874, 425.066 341.084, 424.590 341.854 C 424.158 342.554, 424.442 342.768, 425.343 342.422 C 428.176 341.335, 454.481 350.412, 453.430 352.114 C 453.136 352.589, 453.668 352.681, 454.612 352.319 C 455.868 351.836, 456.109 352.015, 455.510 352.985 C 454.962 353.870, 455.077 354.070, 455.856 353.589 C 457.275 352.712, 466.509 358.211, 475.716 365.415 C 479.457 368.342, 484.870 371.749, 487.745 372.986 C 490.718 374.265, 492.696 375.682, 492.332 376.272 C 491.979 376.842, 492.161 377.019, 492.736 376.663 C 494.049 375.852, 503.195 380.875, 502.488 382.019 C 502.202 382.483, 502.494 383.187, 503.138 383.585 C 503.869 384.037, 504.041 383.876, 503.595 383.155 C 503.203 382.520, 503.289 382, 503.786 382 C 504.921 382, 507.833 385.163, 507.929 386.500 C 507.968 387.050, 508.364 387.500, 508.809 387.500 C 512.275 387.500, 525.223 403.544, 531.810 416 C 543.800 438.677, 547.623 461.993, 543.450 487 C 542.487 492.775, 541.496 499.928, 541.248 502.896 C 540.960 506.354, 540.497 507.805, 539.960 506.936 C 539.494 506.182, 539.381 509.003, 539.706 513.290 C 540.124 518.819, 539.960 521, 539.125 521 C 538.421 521, 538.181 521.887, 538.518 523.250 C 539.653 527.841, 531.668 560.531, 529.708 559.319 C 529.148 558.974, 528.966 559.136, 529.303 559.680 C 530.055 560.899, 527.950 568.087, 527.010 567.506 C 526.638 567.276, 526.333 567.747, 526.333 568.553 C 526.333 571.159, 521.724 579.947, 520.691 579.309 C 520.141 578.969, 519.987 579.170, 520.349 579.755 C 521.281 581.264, 520.001 584.119, 518.741 583.340 C 518.128 582.961, 517.988 583.171, 518.404 583.845 C 519.283 585.266, 510.903 598.058, 509.615 597.262 C 509.107 596.948, 508.986 597.169, 509.347 597.753 C 510.599 599.778, 486.821 626.625, 484.853 625.409 C 484.357 625.102, 484.074 625.314, 484.225 625.879 C 484.605 627.298, 472.850 636.012, 471.550 635.275 C 470.973 634.947, 470.841 635.055, 471.258 635.514 C 471.675 635.974, 470.775 637.194, 469.258 638.226 C 464.796 641.261, 457.001 645.098, 456.985 644.267 C 456.976 643.845, 456.639 643.950, 456.235 644.500 C 454.994 646.188, 447.928 649.074, 446.777 648.362 C 446.158 647.979, 445.976 648.153, 446.355 648.765 C 447.185 650.108, 440.535 652.428, 438.770 651.411 C 438.071 651.008, 437.840 651.054, 438.256 651.513 C 439.266 652.625, 425.108 657.221, 422.280 656.699 C 421.059 656.473, 420.261 656.613, 420.505 657.008 C 420.750 657.404, 418.598 658.010, 415.725 658.355 C 408.272 659.250, 378.789 659.150, 379.357 658.232 C 379.618 657.809, 378.010 657.637, 375.784 657.849 C 373.324 658.084, 371.972 657.854, 372.338 657.262 C 372.688 656.696, 371.958 656.477, 370.590 656.738 C 367.959 657.241, 349.462 652.280, 347.659 650.588 C 347.022 649.989, 346.050 649.493, 345.500 649.484 C 342.630 649.437, 337.047 646.724, 337.651 645.669 C 338.019 645.026, 337.969 644.817, 337.539 645.205 C 336.642 646.013, 327 641.388, 327 640.150 C 327 639.701, 326.353 639.333, 325.562 639.333 C 323.439 639.333, 314.105 632.651, 314.753 631.595 C 315.059 631.098, 314.830 630.987, 314.244 631.349 C 312.108 632.669, 282 604.691, 282 601.387 C 282 599.552, 279.565 599.614, 278.009 601.489 C 277.329 602.308, 276.374 602.731, 275.887 602.430 C 275.399 602.129, 275 602.296, 275 602.802 C 275 603.309, 273.808 603.495, 272.351 603.216 C 270.340 602.832, 269.898 603.027, 270.515 604.025 C 271.090 604.955, 270.877 605.167, 269.787 604.749 C 268.269 604.166, 269.882 606.074, 281.911 619.084 C 285.259 622.705, 287.661 626.005, 287.249 626.417 C 286.837 626.830, 287.175 627.017, 288 626.833 C 288.825 626.650, 289.387 627.063, 289.250 627.750 C 289.112 628.438, 289.562 628.888, 290.250 628.750 C 290.937 628.613, 291.387 629.063, 291.250 629.750 C 291.112 630.438, 291.337 630.888, 291.750 630.752 C 292.162 630.616, 295.650 633.040, 299.500 636.140 C 303.350 639.240, 310.876 644.464, 316.224 647.748 C 321.572 651.032, 325.622 654.079, 325.224 654.520 C 324.826 654.960, 324.993 655.040, 325.595 654.697 C 326.198 654.354, 331.373 656.108, 337.095 658.596 C 357.595 667.508, 372.663 670.379, 397 670.010 C 420.122 669.660, 421.858 669.579, 421.424 668.876 C 421.212 668.533, 423.175 667.969, 425.787 667.623 C 428.399 667.276, 434.557 665.675, 439.473 664.064 C 444.389 662.453, 448.768 661.357, 449.205 661.627 C 449.642 661.897, 450 661.742, 450 661.282 C 450 660.821, 452.909 659.178, 456.464 657.629 C 460.020 656.080, 465.468 653.283, 468.573 651.414 C 471.677 649.545, 474.618 648.264, 475.108 648.567 C 475.599 648.870, 476.003 648.754, 476.006 648.309 C 476.014 647.217, 492.116 635.434, 493.168 635.750 C 493.626 635.888, 493.888 635.610, 493.750 635.133 C 493.443 634.068, 507.205 620.428, 508.250 620.761 C 508.663 620.892, 508.888 620.604, 508.750 620.121 C 508.613 619.638, 510.854 616.290, 513.730 612.683 C 559.876 554.806, 565.584 471.903, 528.093 404.046 C 520.743 390.742, 495.197 364.062, 479.250 353.033 C 475.813 350.655, 473 348.325, 473 347.855 C 473 347.385, 472.660 347.112, 472.245 347.250 C 471.830 347.387, 467.217 345.399, 461.995 342.830 C 452.246 338.036, 430.258 330, 426.889 330 C 425.850 330, 425 329.663, 425 329.250 C 425 328.837, 423.988 328.436, 422.750 328.359 C 421.512 328.281, 414.200 327.861, 406.500 327.424 C 397.950 326.939, 393.473 326.352, 395 325.915 L 397.500 325.199 394.833 325.100 C 393.367 325.045, 392.017 325.408, 391.833 325.906 M 468.665 381.960 C 467.106 382.462, 465.120 382.600, 464.251 382.266 C 463.114 381.830, 462.904 382.035, 463.500 383 C 464.105 383.979, 463.880 384.168, 462.664 383.701 C 461.748 383.350, 461 383.546, 461 384.138 C 461 384.730, 460.302 384.946, 459.448 384.618 C 458.434 384.229, 458.144 384.425, 458.612 385.181 C 459.095 385.962, 458.769 386.125, 457.612 385.681 C 456.643 385.309, 456.148 385.431, 456.476 385.961 C 457.107 386.981, 453.663 389.224, 452.631 388.465 C 452.284 388.209, 452.170 388.245, 452.378 388.545 C 452.902 389.300, 444.834 397.556, 443.860 397.262 C 443.427 397.131, 443.311 397.647, 443.603 398.408 C 443.895 399.170, 443.207 400.442, 442.074 401.236 C 440.940 402.030, 440.252 402.918, 440.544 403.210 C 441.286 403.953, 438.877 409, 437.780 409 C 437.286 409, 437.137 409.412, 437.448 409.916 C 437.760 410.420, 437.497 412.107, 436.866 413.666 C 430.731 428.802, 439.357 484.224, 447.102 479.437 C 447.583 479.140, 447.744 479.504, 447.459 480.247 C 447.174 480.990, 448.678 484.287, 450.802 487.573 C 464.826 509.270, 488.508 521.598, 505.975 516.295 C 508.464 515.539, 511.288 515.122, 512.251 515.367 C 513.215 515.613, 513.762 515.425, 513.469 514.949 C 513.175 514.474, 514.187 513.429, 515.717 512.628 C 519.332 510.735, 524.054 505.696, 527.761 499.776 C 529.388 497.178, 531.079 495.378, 531.520 495.776 C 531.960 496.174, 532.039 496.006, 531.695 495.401 C 531.351 494.797, 532.234 490.522, 533.657 485.901 C 541.095 461.754, 531.781 424.027, 513 402.227 C 510.525 399.354, 508.500 396.440, 508.500 395.752 C 508.500 395.063, 508.050 394.498, 507.500 394.495 C 505.839 394.486, 497.012 387.321, 497.752 386.582 C 498.130 386.204, 497.591 386.220, 496.555 386.617 C 495.144 387.159, 494.877 387.008, 495.490 386.015 C 496.006 385.181, 495.920 384.931, 495.258 385.341 C 494.176 386.009, 487.624 383.709, 488.400 382.933 C 488.638 382.695, 487.858 382.441, 486.667 382.368 C 485.475 382.296, 481.575 381.969, 478 381.642 C 474.425 381.315, 470.224 381.458, 468.665 381.960 M 473.185 391.821 C 472.462 392.303, 470.825 392.498, 469.547 392.254 C 466.689 391.707, 462.695 393.698, 463.627 395.205 C 464.043 395.878, 463.850 396.025, 463.134 395.583 C 460.628 394.034, 449.228 406.545, 450.389 409.570 C 450.712 410.414, 450.569 410.851, 450.069 410.543 C 448.875 409.805, 446.645 416.617, 447.583 418.135 C 448.060 418.906, 447.875 419.041, 447.045 418.528 C 446.069 417.924, 445.919 418.742, 446.387 422.123 C 446.812 425.190, 446.716 425.901, 446.067 424.500 C 445.419 423.100, 445.120 425.352, 445.070 432 C 444.821 465.769, 462.584 497.026, 485.983 503.995 C 492.940 506.067, 502.568 506.728, 501.539 505.063 C 501.212 504.534, 502.058 504.324, 503.480 504.582 C 504.898 504.839, 506 504.568, 506 503.961 C 506 503.367, 506.437 503.152, 506.971 503.482 C 515.915 509.010, 528.252 479.342, 525.885 458 C 523.024 432.210, 497.181 389.826, 487.837 395.601 C 487.189 396.001, 486.962 395.871, 487.314 395.301 C 488.640 393.156, 475.891 390.016, 473.185 391.821 M 470.556 398.909 C 469.839 400.070, 475.868 405.200, 477.073 404.455 C 477.570 404.148, 477.709 404.594, 477.382 405.448 C 477.054 406.302, 477.248 407, 477.813 407 C 479.538 407, 493.588 424.438, 497.500 431.434 C 509.140 452.247, 512.461 479.974, 504.557 490.337 C 500.757 495.318, 501.461 496.944, 505.457 492.417 C 515.967 480.510, 515.220 452.815, 503.856 433 C 503.382 432.175, 502.515 430.375, 501.928 429 C 500.200 424.953, 494.430 416.731, 491.093 413.563 C 489.392 411.948, 488 410.035, 488 409.313 C 488 408.591, 487.502 408, 486.893 408 C 486.284 408, 486.045 408.675, 486.362 409.500 C 486.678 410.325, 486.694 411, 486.397 411 C 486.100 411, 485.182 410.325, 484.357 409.500 C 483.264 408.406, 483.202 408, 484.129 408 C 485.991 408, 483.731 405.950, 481.381 405.507 C 480.346 405.312, 479.332 405.119, 479.128 405.077 C 478.923 405.034, 479.255 404.398, 479.865 403.662 C 480.988 402.310, 477.690 399.618, 475.445 400.054 C 472.525 400.620, 470.571 399.778, 473 399 C 475.327 398.255, 475.349 398.192, 473.309 398.100 C 472.104 398.045, 470.865 398.409, 470.556 398.909 M 434.057 401.893 C 433.386 403.148, 432.396 403.767, 431.700 403.368 C 431.040 402.989, 430.820 403.034, 431.210 403.466 C 432.040 404.387, 429.356 410, 428.085 410 C 427.611 410, 427.243 410.563, 427.269 411.250 C 427.388 414.473, 426.913 416.064, 426 415.500 C 425.450 415.160, 424.966 415.696, 424.923 416.691 C 424.881 417.686, 424.603 419.400, 424.305 420.500 C 423.355 424.001, 423.334 438, 424.278 438 C 424.777 438, 425.031 440.476, 424.843 443.502 C 424.654 446.527, 424.829 449.115, 425.230 449.252 C 425.632 449.388, 426.423 451.975, 426.989 455 C 431.002 476.480, 446.741 503.269, 461 512.891 C 473.202 521.126, 487.980 525.353, 491.668 521.665 C 492.420 520.913, 492.608 520.940, 484.500 520.629 C 476.511 520.322, 467.835 515.701, 458.320 506.683 C 454.364 502.934, 450.836 499.934, 450.480 500.017 C 450.124 500.099, 449.533 499.832, 449.167 499.423 C 448.800 499.014, 449.063 499.003, 449.750 499.399 C 451.508 500.411, 451.306 499.362, 449.133 496.210 C 443.323 487.778, 440.847 482.944, 437.621 473.734 C 433.774 462.752, 430.507 446.101, 431.457 442.317 C 431.780 441.030, 431.585 440, 431.019 440 C 430.459 440, 430.064 438.087, 430.142 435.750 L 430.284 431.500 431.027 435.500 C 431.451 437.783, 431.545 435.549, 431.245 430.295 C 430.884 423.965, 431.123 420.118, 432.010 417.976 C 432.719 416.263, 433.379 413.543, 433.475 411.931 C 433.832 405.955, 434.031 405.112, 435.409 403.734 C 436.236 402.907, 436.487 401.788, 436.017 401.027 C 435.414 400.052, 434.927 400.268, 434.057 401.893 M 418.468 414.035 C 417.455 415.155, 416.035 415.844, 415.313 415.567 C 414.591 415.290, 414 415.491, 414 416.015 C 414 417.247, 404.439 422.106, 403.622 421.288 C 403.280 420.946, 403 421.153, 403 421.748 C 403 422.342, 400.711 424.237, 397.914 425.958 C 395.117 427.679, 393.115 428.623, 393.466 428.055 C 393.846 427.440, 393.479 427.263, 392.558 427.616 C 391.707 427.943, 391.214 428.537, 391.461 428.937 C 392.048 429.886, 380.450 436.117, 379.628 435.294 C 379.282 434.949, 379 435.218, 379 435.892 C 379 436.566, 378.610 436.877, 378.134 436.583 C 377.657 436.288, 376.472 436.926, 375.500 438 C 374.528 439.074, 373.273 439.669, 372.712 439.322 C 372.127 438.960, 371.996 439.184, 372.405 439.845 C 372.797 440.480, 372.641 441, 372.059 441 C 369.999 441, 369.486 441.289, 368.146 443.202 C 367.402 444.265, 366.141 444.884, 365.344 444.579 C 364.548 444.273, 364.132 444.405, 364.421 444.872 C 364.709 445.339, 363.136 446.537, 360.923 447.535 C 358.711 448.532, 355.484 450.957, 353.753 452.924 C 352.021 454.891, 350.209 456.376, 349.728 456.225 C 349.246 456.074, 349.114 456.375, 349.435 456.895 C 349.756 457.414, 349.416 458.442, 348.679 459.178 C 347.942 459.915, 347.512 461.036, 347.723 461.670 C 347.934 462.303, 347.476 463.411, 346.705 464.131 C 345.934 464.851, 345.530 466.312, 345.809 467.377 C 346.178 468.788, 345.959 469.093, 345.003 468.502 C 344.264 468.045, 343.929 468.086, 344.236 468.595 C 344.535 469.093, 344.492 474.788, 344.140 481.250 C 343.788 487.713, 343.776 493, 344.114 493 C 344.452 493, 345.008 495.045, 345.351 497.544 C 347.836 515.676, 360.938 537.761, 374.896 547.349 C 377.978 549.466, 380.725 551.491, 381 551.849 C 382.004 553.156, 406.308 554.307, 405.506 553.010 C 405.249 552.594, 408.518 551.006, 412.769 549.480 C 419.977 546.895, 438.242 539.117, 442.291 536.909 C 443.276 536.372, 444.513 536.199, 445.041 536.525 C 445.568 536.851, 446 536.707, 446 536.206 C 446 534.820, 468.011 524.790, 469.662 525.424 C 470.455 525.728, 470.837 525.545, 470.511 525.018 C 470.185 524.490, 471.083 523.766, 472.506 523.409 C 477.132 522.248, 474.586 522.068, 467.577 523.060 C 463.261 523.672, 457.546 525.530, 452.115 528.088 C 438.798 534.361, 423.914 540.065, 422.746 539.343 C 422.166 538.984, 421.976 539.153, 422.325 539.717 C 423.140 541.036, 414.470 544.391, 412.774 543.413 C 412.073 543.010, 411.837 543.051, 412.249 543.505 C 415.484 547.073, 394.019 549.107, 385.788 546.012 C 375.510 542.148, 355.339 518.770, 357.476 513.201 C 357.752 512.483, 357.599 512.130, 357.137 512.415 C 355.804 513.239, 352.571 501.159, 352.571 495.353 C 352.571 492.450, 352.234 490.621, 351.821 491.288 C 351.409 491.954, 351.075 487.331, 351.081 481.014 C 351.086 474.673, 351.456 470.119, 351.906 470.848 C 352.445 471.720, 352.721 471.207, 352.722 469.334 C 352.722 462.908, 357.662 453.055, 360.122 454.576 C 360.592 454.866, 360.754 454.518, 360.482 453.802 C 359.962 452.434, 368.155 446.667, 370.618 446.667 C 371.378 446.667, 371.795 446.462, 371.544 446.211 C 370.967 445.634, 387.081 435.778, 388.706 435.714 C 389.369 435.688, 389.633 435.215, 389.292 434.663 C 388.923 434.067, 389.342 433.917, 390.324 434.294 C 391.343 434.685, 391.885 434.463, 391.738 433.714 C 391.607 433.046, 392.175 432.500, 393 432.500 C 393.825 432.500, 394.725 432.255, 395 431.956 C 396.991 429.788, 408.418 423.141, 409.260 423.660 C 409.872 424.039, 410.012 423.829, 409.595 423.155 C 409.203 422.520, 409.324 422, 409.864 422 C 410.405 422, 412.906 420.428, 415.423 418.507 C 417.941 416.585, 420.007 415.348, 420.015 415.757 C 420.035 416.703, 421.964 413.757, 421.985 412.750 C 422.013 411.366, 420.326 411.982, 418.468 414.035 M 1167.582 422.867 C 1167.099 423.649, 1160.972 424.882, 1155.345 425.329 C 1154.161 425.423, 1153.447 425.914, 1153.760 426.420 C 1154.074 426.929, 1153.562 427.046, 1152.612 426.681 C 1151.668 426.319, 1151.120 426.385, 1151.394 426.828 C 1151.667 427.271, 1150.453 428.482, 1148.696 429.521 C 1146.938 430.559, 1145.401 431.204, 1145.281 430.954 C 1145.160 430.704, 1143.062 433.544, 1140.619 437.264 C 1129.636 453.985, 1132.899 474.549, 1149.248 491.646 C 1151.428 493.926, 1153.164 496.064, 1153.106 496.396 C 1153.048 496.728, 1153.178 496.887, 1153.395 496.750 C 1154.163 496.264, 1157.946 500.279, 1157.460 501.065 C 1157.189 501.503, 1157.494 502.187, 1158.138 502.585 C 1158.919 503.068, 1159.039 502.873, 1158.500 502 C 1157.965 501.134, 1158.082 500.932, 1158.845 501.405 C 1159.480 501.797, 1160 502.793, 1160 503.618 C 1160 504.443, 1160.373 504.888, 1160.828 504.606 C 1162.525 503.557, 1178.051 521.282, 1176.657 522.677 C 1176.348 522.985, 1176.749 523.892, 1177.548 524.690 C 1182.788 529.931, 1174.850 553.116, 1169.044 549.527 C 1168.470 549.172, 1168 549.359, 1168 549.941 C 1168 551.079, 1159.995 551.373, 1156.261 550.373 C 1155.030 550.043, 1154.312 549.304, 1154.666 548.732 C 1155.020 548.159, 1154.830 547.987, 1154.245 548.349 C 1152.846 549.213, 1149.855 548.043, 1150.558 546.907 C 1150.858 546.421, 1150.472 546.266, 1149.699 546.562 C 1147.909 547.249, 1137.729 536.281, 1138.655 534.663 C 1139.021 534.024, 1138.948 533.838, 1138.491 534.252 C 1138.035 534.666, 1136.775 534.216, 1135.690 533.252 C 1133.761 531.539, 1133.730 531.578, 1134.303 535 C 1134.625 536.925, 1135.165 542.100, 1135.504 546.500 C 1135.843 550.900, 1136.366 555.794, 1136.667 557.375 C 1136.968 558.956, 1136.828 560.012, 1136.357 559.721 C 1135.886 559.429, 1135.500 560.248, 1135.500 561.539 C 1135.500 563.035, 1136.045 563.827, 1137 563.721 C 1140.587 563.321, 1153.165 565.280, 1151.927 566.045 C 1151.185 566.503, 1152.559 566.638, 1155.052 566.352 C 1158.447 565.962, 1159.145 566.102, 1158 566.944 C 1156.344 568.162, 1163.411 567.660, 1172.334 565.925 C 1174.992 565.408, 1177.649 565.283, 1178.238 565.647 C 1178.921 566.069, 1179.012 565.829, 1178.490 564.985 C 1177.896 564.023, 1178.128 563.835, 1179.336 564.299 C 1180.251 564.650, 1181 564.584, 1181 564.153 C 1181 563.387, 1187.759 559.229, 1189.250 559.077 C 1189.662 559.034, 1190.052 558.663, 1190.116 558.250 C 1190.180 557.837, 1191.595 555.948, 1193.260 554.051 C 1197.047 549.738, 1199.826 543.548, 1200.639 537.614 C 1200.984 535.101, 1201.572 533.235, 1201.946 533.467 C 1202.321 533.698, 1201.895 529.750, 1201.001 524.694 C 1199.364 515.436, 1197.296 510.361, 1192.611 504.101 C 1191.211 502.231, 1190.349 500.206, 1190.694 499.601 C 1191.038 498.995, 1190.964 498.822, 1190.528 499.216 C 1189.682 499.980, 1185.500 495.245, 1185.500 493.524 C 1185.500 492.961, 1184.825 492.480, 1184 492.455 C 1183.175 492.430, 1182.624 491.834, 1182.775 491.130 C 1182.926 490.427, 1182.701 490.063, 1182.275 490.321 C 1181.849 490.579, 1179.475 488.985, 1177 486.779 C 1174.525 484.573, 1173.175 483.118, 1174 483.545 C 1174.886 484.003, 1175.159 483.948, 1174.667 483.410 C 1174.208 482.910, 1173.308 482.480, 1172.667 482.455 C 1172.025 482.430, 1171.624 481.834, 1171.775 481.130 C 1171.926 480.427, 1171.625 480.114, 1171.105 480.435 C 1170.009 481.113, 1163.862 474.032, 1164.563 472.898 C 1164.821 472.480, 1164.506 471.813, 1163.862 471.415 C 1163.131 470.963, 1162.959 471.124, 1163.405 471.845 C 1163.797 472.480, 1163.885 473, 1163.601 473 C 1162.375 473, 1157.850 463.833, 1158.386 462.436 C 1158.760 461.461, 1158.568 461.149, 1157.863 461.584 C 1157.074 462.072, 1156.869 460.393, 1157.161 455.816 C 1157.759 446.429, 1161.931 441.514, 1170.123 440.548 C 1173.633 440.134, 1174.005 440.222, 1172 440.992 C 1170.071 441.733, 1170.609 441.825, 1174.357 441.399 C 1177.663 441.022, 1179.003 441.186, 1178.555 441.911 C 1178.160 442.550, 1178.481 442.753, 1179.358 442.416 C 1181.278 441.679, 1187.054 444.695, 1186.743 446.272 C 1186.609 446.947, 1187.026 447.400, 1187.670 447.277 C 1189.203 446.984, 1195 453.612, 1195 455.657 C 1195 456.955, 1195.274 457.018, 1196.500 456 C 1197.325 455.315, 1197.955 453.573, 1197.900 452.128 L 1197.801 449.500 1197.109 451.984 C 1196.443 454.377, 1194 435.643, 1194 428.138 C 1194 425.963, 1193.522 425, 1192.441 425 C 1191.505 425, 1191.171 425.468, 1191.605 426.170 C 1192.098 426.968, 1191.773 427.127, 1190.582 426.670 C 1189.622 426.301, 1187.497 426, 1185.859 426 C 1184.222 426, 1183.120 425.615, 1183.411 425.144 C 1183.702 424.674, 1182.828 424.501, 1181.470 424.761 C 1180.111 425.021, 1179 424.774, 1179 424.212 C 1179 423.597, 1177.406 423.404, 1175 423.727 C 1172.374 424.079, 1171 423.875, 1171 423.132 C 1171 421.806, 1168.364 421.602, 1167.582 422.867 M 1248.422 422.875 C 1248.889 423.629, 1243.671 424.684, 1236.345 425.314 C 1235.161 425.417, 1234.367 425.785, 1234.583 426.134 C 1234.798 426.483, 1233.653 427.315, 1232.037 427.985 C 1228.236 429.559, 1219.205 439.115, 1217.853 442.992 C 1217.276 444.647, 1216.511 446.001, 1216.152 446.002 C 1214.771 446.006, 1214.940 463.587, 1216.372 468.984 C 1217.173 472.001, 1217.570 474.926, 1217.254 475.484 C 1216.938 476.043, 1217.051 476.163, 1217.505 475.751 C 1217.959 475.340, 1219.659 477.328, 1221.282 480.169 C 1222.905 483.011, 1227.893 488.952, 1232.366 493.371 C 1236.840 497.790, 1240.350 501.877, 1240.167 502.453 C 1239.983 503.029, 1240.175 503.158, 1240.592 502.741 C 1241.623 501.710, 1246.099 506.031, 1245.315 507.300 C 1244.972 507.855, 1245.174 508.010, 1245.765 507.645 C 1247.280 506.709, 1254.365 513.601, 1253.434 515.106 C 1252.958 515.877, 1253.114 516.048, 1253.868 515.582 C 1255.332 514.677, 1260.448 525.390, 1259.603 527.592 C 1259.274 528.450, 1259.450 528.840, 1260.011 528.493 C 1260.618 528.118, 1261 530.053, 1261 533.500 C 1261 536.606, 1260.594 538.867, 1260.093 538.558 C 1259.595 538.249, 1259.411 538.856, 1259.686 539.906 C 1259.982 541.038, 1259.334 542.666, 1258.092 543.908 C 1256.942 545.058, 1256 546.434, 1256 546.965 C 1256 548.303, 1252.174 550.226, 1250.979 549.487 C 1250.441 549.154, 1250 549.359, 1250 549.941 C 1250 550.558, 1247.704 551, 1244.500 551 C 1241.296 551, 1239 550.558, 1239 549.941 C 1239 549.359, 1238.549 549.161, 1237.997 549.502 C 1234.874 551.432, 1215.484 534.665, 1216.296 530.736 C 1216.408 530.194, 1216.050 529.581, 1215.500 529.375 C 1214.904 529.151, 1214.500 531.385, 1214.500 534.905 C 1214.500 538.152, 1214.797 540.625, 1215.160 540.401 C 1216.013 539.874, 1217.368 556.038, 1216.797 559.926 C 1216.558 561.559, 1216.699 562.686, 1217.112 562.431 C 1217.524 562.176, 1218.144 562.425, 1218.490 562.984 C 1218.835 563.543, 1220.918 564, 1223.118 564 C 1225.318 564, 1226.904 564.346, 1226.643 564.768 C 1226.382 565.191, 1228.043 565.389, 1230.334 565.209 C 1232.844 565.012, 1234.011 565.222, 1233.271 565.737 C 1232.553 566.236, 1234.841 566.469, 1238.771 566.297 C 1243.494 566.089, 1244.904 566.278, 1243.500 566.930 C 1242.056 567.601, 1241.931 567.879, 1243.050 567.930 C 1243.903 567.968, 1245.140 567.460, 1245.800 566.800 C 1246.733 565.867, 1247 565.894, 1247 566.922 C 1247 567.988, 1247.293 568.002, 1248.508 566.993 C 1249.429 566.229, 1251.386 565.963, 1253.531 566.311 C 1255.615 566.649, 1256.808 566.499, 1256.463 565.941 C 1255.947 565.105, 1258.146 564.600, 1261.739 564.730 C 1262.421 564.754, 1262.684 564.299, 1262.325 563.717 C 1261.914 563.052, 1262.308 562.904, 1263.388 563.319 C 1264.334 563.682, 1264.850 563.566, 1264.537 563.061 C 1263.940 562.094, 1267.793 560.405, 1269.500 560.885 C 1270.050 561.040, 1270.175 560.841, 1269.777 560.444 C 1269.380 560.046, 1271.292 557.272, 1274.027 554.280 C 1276.762 551.287, 1279 548.399, 1279 547.860 C 1279 547.322, 1279.520 547.203, 1280.155 547.595 C 1280.789 547.988, 1281.051 547.892, 1280.736 547.382 C 1280.421 546.872, 1280.847 543.540, 1281.684 539.977 C 1284.933 526.141, 1281.382 510.963, 1272.630 501.275 C 1270.653 499.087, 1269.253 497.005, 1269.518 496.649 C 1269.783 496.292, 1269.797 496.128, 1269.548 496.285 C 1268.786 496.766, 1253.483 481.864, 1253.750 480.901 C 1253.888 480.406, 1253.626 480.112, 1253.170 480.250 C 1249.656 481.308, 1238.536 464.265, 1239.366 459.095 C 1239.790 456.453, 1239.670 455.898, 1238.913 457 C 1238.172 458.077, 1238.065 457.231, 1238.532 454 C 1239.251 449.016, 1243.812 442.416, 1246.384 442.637 C 1247.261 442.712, 1247.688 442.305, 1247.334 441.731 C 1246.907 441.040, 1247.838 440.909, 1250.095 441.343 C 1252.492 441.803, 1253.056 441.706, 1252 441.014 C 1250.829 440.246, 1251.115 440.027, 1253.309 440.015 C 1254.908 440.007, 1255.855 440.426, 1255.507 440.989 C 1255.160 441.550, 1255.549 441.726, 1256.407 441.397 C 1258.385 440.638, 1265.183 442.894, 1264.457 444.069 C 1264.149 444.569, 1264.482 444.771, 1265.198 444.518 C 1267.333 443.766, 1277.614 454.197, 1276.506 455.991 C 1276.210 456.470, 1276.331 457.087, 1276.776 457.362 C 1277.221 457.637, 1277.689 456.430, 1277.817 454.681 C 1277.944 452.931, 1278.310 450.656, 1278.631 449.625 C 1278.955 448.583, 1278.800 448.006, 1278.281 448.326 C 1277.231 448.975, 1274.571 428.504, 1275.509 426.986 C 1275.854 426.428, 1275.383 426.300, 1274.388 426.681 C 1273.132 427.164, 1272.891 426.985, 1273.490 426.015 C 1274.088 425.049, 1273.929 424.927, 1272.905 425.565 C 1271.453 426.467, 1267.247 426.257, 1265.514 425.195 C 1264.972 424.863, 1262.947 424.701, 1261.014 424.837 C 1258.665 425.001, 1257.942 424.784, 1258.835 424.180 C 1259.673 423.613, 1258.280 423.459, 1255.085 423.766 C 1251.690 424.092, 1250 423.880, 1250 423.127 C 1250 422.507, 1249.523 422, 1248.941 422 C 1248.359 422, 1248.125 422.394, 1248.422 422.875 M 635.500 424.051 C 628.005 424.496, 624.435 425.195, 621.250 426.843 C 618.913 428.052, 617 428.805, 617 428.517 C 617 428.230, 615.376 429.792, 613.391 431.989 C 611.396 434.197, 609.272 435.692, 608.641 435.331 C 608.014 434.973, 607.790 435.004, 608.144 435.401 C 608.498 435.797, 607.261 439.052, 605.394 442.634 C 603.527 446.215, 602 450.264, 602 451.632 C 602 452.999, 601.639 453.895, 601.198 453.622 C 600.757 453.350, 600.763 456.361, 601.211 460.313 C 601.659 464.266, 602.133 468.694, 602.263 470.153 C 602.393 471.611, 602.908 472.554, 603.408 472.246 C 603.907 471.939, 604.061 472.658, 603.751 473.845 C 603.440 475.032, 603.542 475.783, 603.977 475.514 C 604.412 475.245, 605.361 476.458, 606.086 478.208 C 606.811 479.959, 608.677 482.840, 610.231 484.610 C 611.785 486.381, 612.932 488.409, 612.779 489.119 C 612.625 489.829, 613.175 490.430, 614 490.455 C 614.825 490.480, 615.500 491.175, 615.500 492 C 615.500 492.825, 616.025 493.500, 616.667 493.500 C 618.162 493.500, 619.500 494.838, 619.500 496.333 C 619.500 496.975, 620.052 497.500, 620.727 497.500 C 622.711 497.500, 641.134 515.974, 640.375 517.203 C 639.987 517.829, 640.144 518.029, 640.736 517.663 C 642.051 516.851, 645.354 523.618, 644.398 525.166 C 643.974 525.851, 644.133 526.036, 644.795 525.627 C 646.326 524.681, 647.381 530.972, 646.584 536.289 C 645.244 545.227, 639.120 551.001, 631 550.983 C 625.488 550.970, 621.839 550.069, 622.563 548.898 C 622.861 548.417, 622.332 548.319, 621.388 548.681 C 620.308 549.096, 619.914 548.948, 620.325 548.283 C 620.697 547.682, 620.228 547.285, 619.239 547.363 C 618.277 547.439, 617.623 546.908, 617.775 546.176 C 617.926 545.447, 617.569 545.149, 616.981 545.512 C 615.580 546.378, 612.835 544.076, 613.666 542.732 C 614.019 542.160, 613.852 541.973, 613.294 542.318 C 611.953 543.147, 604.798 535.135, 605.649 533.758 C 606.024 533.152, 605.840 532.981, 605.224 533.362 C 604.627 533.731, 603.856 533.575, 603.510 533.016 C 602.142 530.803, 601.058 532.200, 601.273 535.898 C 601.398 538.042, 601.799 539.614, 602.164 539.392 C 603.060 538.847, 604.320 552.848, 603.834 557.948 C 603.421 562.275, 605.949 563.978, 612.809 563.994 C 614.079 563.997, 614.844 564.443, 614.509 564.985 C 614.129 565.600, 615.103 565.729, 617.106 565.329 C 618.936 564.963, 620.070 565.076, 619.750 565.594 C 619.433 566.105, 621.337 566.348, 624.123 566.152 C 627.040 565.946, 629.659 566.302, 630.529 567.024 C 631.558 567.878, 632 567.908, 632 567.122 C 632 566.442, 633.967 566, 636.989 566 C 642.533 566, 650.469 563.350, 654.560 560.132 C 656.031 558.974, 657.745 558.318, 658.368 558.674 C 658.990 559.030, 659.166 558.952, 658.759 558.502 C 657.715 557.350, 659.985 554.884, 661.363 555.671 C 661.988 556.028, 662.178 555.964, 661.785 555.529 C 660.890 554.537, 662.818 550.769, 663.884 551.428 C 664.314 551.694, 664.699 551.369, 664.739 550.706 C 664.779 550.043, 665.800 546.800, 667.008 543.500 C 668.935 538.234, 669.127 536.276, 668.579 527.500 C 667.762 514.419, 667.608 513.124, 666.925 513.546 C 666.609 513.742, 665.402 511.949, 664.242 509.562 C 663.083 507.175, 660.707 503.597, 658.963 501.611 C 657.220 499.625, 656.134 498, 656.551 498 C 656.969 498, 656.505 497.111, 655.521 496.024 C 654.538 494.937, 653.403 494.251, 653 494.500 C 652.258 494.958, 648.289 491.124, 648.750 490.395 C 648.888 490.178, 648.663 489.946, 648.250 489.881 C 646.891 489.665, 634.572 477.706, 630.919 473.057 C 625.380 466.008, 621.521 453, 624.969 453 C 625.501 453, 625.694 452.366, 625.396 451.590 C 625.099 450.815, 625.574 448.790, 626.453 447.090 C 627.914 444.265, 629.064 443.514, 631.324 443.906 C 631.778 443.985, 631.884 443.621, 631.560 443.097 C 630.809 441.882, 634.601 440.635, 636.146 441.590 C 636.916 442.066, 637.038 441.870, 636.505 441.008 C 635.875 439.988, 636.663 439.815, 640.140 440.207 C 645.550 440.816, 652.223 443.831, 651.337 445.264 C 650.969 445.859, 651.171 446.012, 651.805 445.621 C 653.274 444.712, 661.175 451.883, 660.331 453.359 C 659.973 453.986, 660.045 454.169, 660.491 453.766 C 660.937 453.362, 661.929 453.812, 662.694 454.766 C 663.897 456.265, 663.983 455.346, 663.325 448 C 662.907 443.325, 662.552 437.402, 662.537 434.837 C 662.522 432.145, 662.166 430.666, 661.696 431.337 C 661.239 431.989, 661.025 430.673, 661.209 428.339 C 661.490 424.765, 661.308 424.300, 659.920 425.043 C 657.984 426.079, 648.457 425.565, 646.725 424.331 C 646.051 423.850, 641 423.725, 635.500 424.051 M 416.690 425.452 C 415.892 426.251, 414.960 426.626, 414.619 426.286 C 414.279 425.945, 414 426.180, 414 426.808 C 414 427.796, 408.945 431.077, 407.510 431.020 C 405.291 430.932, 404.756 431.090, 405.330 431.663 C 406.327 432.660, 400.063 436.149, 398.690 435.362 C 398.035 434.986, 397.836 435.050, 398.248 435.504 C 399.099 436.443, 391.945 441.084, 390.768 440.356 C 390.345 440.095, 390 440.365, 390 440.956 C 390 442.422, 383.878 446.043, 382.666 445.294 C 382.126 444.960, 382.009 445.206, 382.405 445.845 C 382.797 446.480, 382.641 447, 382.059 447 C 381.477 447, 380.775 447, 380.500 447 C 380.225 447, 379.084 447.916, 377.964 449.036 C 376.843 450.157, 375.493 450.805, 374.964 450.477 C 374.434 450.150, 374 450.307, 374 450.826 C 374 451.996, 369.024 455.333, 367.281 455.333 C 366.576 455.333, 366 455.708, 366 456.167 C 366 456.625, 365.663 456.888, 365.250 456.750 C 364.837 456.613, 364.425 456.894, 364.333 457.376 C 364.240 457.858, 362.966 459.038, 361.500 460 C 360.034 460.962, 358.872 462.030, 358.917 462.374 C 359.179 464.358, 358.886 465.048, 358.011 464.507 C 357.445 464.157, 357.277 464.558, 357.618 465.448 C 357.946 466.302, 357.730 467, 357.138 467 C 356.547 467, 356.322 467.675, 356.638 468.500 C 356.955 469.325, 356.794 470, 356.280 470 C 355.767 470, 355.497 471.462, 355.681 473.250 C 355.895 475.328, 355.742 475.886, 355.258 474.797 C 354.832 473.840, 354.470 476.688, 354.431 481.297 C 354.389 486.171, 354.653 488.485, 355.081 487 C 355.723 484.769, 355.811 484.879, 355.900 488.022 C 355.955 489.959, 356.867 494.668, 357.926 498.488 C 358.985 502.307, 359.590 505.854, 359.271 506.370 C 358.952 506.887, 359.159 507.020, 359.732 506.666 C 360.319 506.303, 362.007 508.462, 363.604 511.617 C 366.717 517.771, 374.737 525.663, 376.294 524.106 C 376.816 523.584, 377.976 523.389, 378.872 523.672 C 380.197 524.092, 380.237 524.002, 379.091 523.187 C 378.316 522.636, 377.105 522.406, 376.400 522.677 C 375.621 522.976, 374.124 521.205, 372.579 518.155 C 370.158 513.378, 366.898 509.685, 368.279 513.285 C 368.714 514.418, 368.467 514.733, 367.449 514.342 C 365.669 513.659, 365.567 512.318, 367.250 511.729 C 368.149 511.415, 367.965 510.690, 366.595 509.146 C 362.517 504.552, 366.163 507.339, 372.881 513.951 C 376.765 517.774, 380.212 520.467, 380.540 519.935 C 380.869 519.403, 381.557 519.226, 382.069 519.543 C 383.587 520.481, 383.132 519.141, 381.250 517.130 C 374.753 510.190, 373.890 509, 375.347 509 C 376.181 509, 377.897 510.462, 379.160 512.250 C 382.132 516.457, 385.390 519.155, 385.872 517.809 C 386.076 517.237, 384.951 515.697, 383.372 514.386 C 381.272 512.643, 381.038 512.179, 382.500 512.661 C 384.448 513.303, 384.445 513.257, 382.399 510.910 C 378.744 506.718, 378.566 505.376, 382.100 508.655 C 383.970 510.390, 386.400 511.982, 387.500 512.193 C 388.649 512.414, 389.441 513.305, 389.361 514.288 C 389.285 515.230, 389.891 516, 390.709 516 C 392.952 516, 388.642 509.585, 386.134 509.192 C 385.053 509.022, 383.896 508.171, 383.562 507.300 C 383.071 506.021, 383.230 505.946, 384.388 506.907 C 385.400 507.747, 386.019 507.778, 386.491 507.015 C 386.906 506.343, 387.914 506.893, 389.152 508.466 C 390.248 509.860, 391.765 511, 392.523 511 C 393.281 511, 394.394 511.788, 394.998 512.750 C 395.930 514.237, 395.998 514.146, 395.449 512.151 C 395.093 510.859, 393.947 508.947, 392.901 507.901 C 391.856 506.856, 391 505.525, 391 504.944 C 391 504.364, 392.012 505.027, 393.250 506.417 C 394.488 507.808, 396.765 509.159, 398.312 509.418 C 401.116 509.889, 401.113 509.879, 397.062 505.705 C 394.828 503.404, 393 500.953, 393 500.260 C 393 499.567, 394.800 500.800, 397 503 C 400.902 506.902, 403 507.969, 403 506.050 C 403 505.527, 402.212 504.641, 401.250 504.080 C 400.288 503.519, 399.915 503.047, 400.421 503.030 C 400.928 503.014, 402.168 503.747, 403.177 504.661 C 406.350 507.531, 406.264 505.371, 403.062 501.723 C 398.584 496.623, 399.322 496.233, 404.622 500.899 C 410.382 505.968, 412.430 505.280, 406.988 500.103 C 404.795 498.017, 403 495.712, 403 494.981 C 403 494.120, 403.820 494.421, 405.324 495.835 C 406.602 497.036, 407.990 497.677, 408.408 497.259 C 408.825 496.842, 409.017 496.959, 408.833 497.519 C 408.319 499.091, 412.727 504.251, 413.506 502.990 C 413.873 502.397, 413.648 501.281, 413.007 500.509 C 412.176 499.507, 412.143 498.588, 412.891 497.302 C 413.847 495.659, 413.942 495.699, 413.970 497.750 C 413.986 498.988, 414.459 500, 415.019 500 C 415.605 500, 415.791 501.168, 415.456 502.750 C 414.966 505.064, 415.052 505.219, 415.998 503.729 C 416.640 502.719, 417.634 502.273, 418.311 502.690 C 418.965 503.093, 418.702 502.203, 417.727 500.711 C 416.752 499.220, 416.410 498, 416.968 498 C 417.526 498, 418.545 498.900, 419.232 500 C 420.559 502.125, 422 502.652, 422 501.013 C 422 499.310, 416.561 492.078, 415.250 492.038 C 413.493 491.985, 413.681 490, 415.443 490 C 416.237 490, 417.495 490.868, 418.238 491.929 C 418.981 492.991, 420.850 494.175, 422.390 494.562 C 424.137 495, 424.747 495.539, 424.011 495.993 C 423.171 496.512, 423.287 496.896, 424.416 497.329 C 425.287 497.664, 426 497.515, 426 497 C 426 495.600, 429.310 497.104, 430.807 499.184 C 431.525 500.183, 433.213 501, 434.557 501 C 435.901 501, 437 501.525, 437 502.167 C 437 502.808, 437.302 503.032, 437.671 502.663 C 438.039 502.294, 437.317 500.902, 436.066 499.570 C 434.814 498.238, 434.089 496.665, 434.454 496.074 C 434.819 495.483, 434.716 495, 434.226 495 C 432.555 495, 432.014 496.312, 433.131 497.658 C 434.513 499.323, 432.845 499.445, 431.200 497.800 C 429.639 496.239, 429.665 494.933, 431.250 495.250 C 432.072 495.414, 432.500 494.217, 432.500 491.750 C 432.500 489.688, 432.139 488, 431.697 488 C 430.318 488, 424.638 474.784, 424.567 471.410 C 424.530 469.644, 424.240 468.358, 423.922 468.552 C 422.669 469.318, 419.651 453.150, 419.806 446.500 C 419.919 441.666, 419.669 439.964, 419 441 C 418.334 442.031, 418.026 439.747, 418.015 433.691 C 418.006 428.069, 418.362 425.106, 419 425.500 C 419.550 425.840, 420 425.641, 420 425.059 C 420 423.557, 418.395 423.748, 416.690 425.452 M 891.500 425.619 C 888.750 426.452, 885.957 427.178, 885.294 427.233 C 884.631 427.288, 884.367 427.785, 884.708 428.337 C 885.081 428.941, 884.645 429.078, 883.612 428.681 C 882.593 428.290, 882.144 428.424, 882.507 429.011 C 883.092 429.958, 881.614 430.462, 879.500 430.035 C 878.950 429.924, 878.805 430.138, 879.178 430.511 C 879.550 430.883, 878.312 432.543, 876.426 434.199 C 874.541 435.854, 871.778 439.380, 870.287 442.032 C 868.795 444.685, 867.151 446.594, 866.633 446.273 C 866.115 445.953, 865.980 446.159, 866.334 446.731 C 867.163 448.073, 865.062 454.156, 863.996 453.497 C 863.551 453.222, 863.440 453.968, 863.751 455.155 C 864.097 456.477, 863.923 457.070, 863.302 456.687 C 862.674 456.299, 862.479 457.057, 862.789 458.679 C 863.132 460.469, 862.931 461.076, 862.156 460.597 C 861.450 460.160, 861.228 460.431, 861.568 461.317 C 861.868 462.099, 861.367 466.725, 860.453 471.597 C 858.731 480.790, 858.559 525.388, 860.250 524.345 C 860.663 524.090, 861.012 525.146, 861.026 526.691 C 861.040 528.236, 862.124 532.647, 863.434 536.494 C 864.744 540.341, 865.561 543.941, 865.248 544.494 C 864.935 545.047, 865.050 545.164, 865.503 544.754 C 866.540 543.814, 870.256 549.777, 869.448 551.085 C 869.120 551.615, 869.298 551.926, 869.845 551.775 C 870.973 551.462, 878.503 559.101, 878.199 560.250 C 878.089 560.662, 878.338 560.947, 878.750 560.882 C 880.735 560.568, 882.057 561.099, 881.507 561.989 C 881.144 562.576, 881.593 562.710, 882.612 562.319 C 883.868 561.836, 884.109 562.015, 883.510 562.985 C 882.994 563.819, 883.080 564.069, 883.742 563.659 C 884.824 562.991, 891.376 565.291, 890.600 566.067 C 889.567 567.099, 914.856 566.205, 918.230 565.090 C 920.282 564.412, 922.489 564.184, 923.135 564.583 C 923.869 565.037, 924.042 564.877, 923.595 564.155 C 923.193 563.503, 923.461 563, 924.209 563 C 924.939 563, 927.223 561.853, 929.286 560.452 C 931.348 559.050, 933.489 558.184, 934.042 558.526 C 934.596 558.869, 934.985 558.778, 934.906 558.324 C 934.276 554.698, 935.314 516.904, 936 518.500 C 936.693 520.112, 936.873 519.784, 936.930 516.809 C 936.968 514.779, 936.550 512.840, 936 512.500 C 935.450 512.160, 935.045 510.896, 935.100 509.691 C 935.193 507.643, 935.254 507.663, 936.039 510 C 936.580 511.611, 936.685 510.354, 936.335 506.464 C 935.815 500.703, 935.954 500.213, 939.388 495.714 L 942.987 491 933.243 491.168 C 924.202 491.324, 923.932 491.384, 929.500 492.006 C 934.759 492.593, 934.234 492.684, 925.248 492.745 C 919.610 492.784, 915.179 492.519, 915.403 492.158 C 915.761 491.578, 913.297 491.478, 908.486 491.875 C 907.294 491.973, 907.524 492.835, 909.570 495.927 C 914.434 503.276, 915.710 543.735, 911.220 548.225 C 908.401 551.043, 897.371 552.130, 896.432 549.682 C 896.103 548.826, 895.226 548.360, 894.483 548.645 C 892.690 549.333, 886.741 541.097, 887.350 538.770 C 887.605 537.795, 887.459 537.217, 887.025 537.485 C 884.245 539.202, 881.312 504.715, 882.455 483.754 C 882.867 476.194, 883.543 470.218, 883.958 470.474 C 884.372 470.730, 884.498 469.826, 884.238 468.465 C 883.329 463.708, 888.257 448.423, 890.294 449.682 C 890.872 450.039, 891.003 449.813, 890.598 449.159 C 889.707 447.717, 894.421 443.193, 898.718 441.367 C 902.204 439.886, 909.436 439.485, 908.612 440.819 C 908.333 441.270, 909.496 441.434, 911.195 441.185 C 913.313 440.874, 914.066 441.084, 913.590 441.854 C 913.160 442.549, 913.438 442.769, 914.319 442.431 C 915.102 442.131, 916.475 442.618, 917.371 443.514 C 918.267 444.410, 919.014 444.773, 919.032 444.321 C 919.049 443.870, 919.724 444.374, 920.532 445.441 C 921.339 446.509, 922.015 446.959, 922.033 446.441 C 922.052 445.924, 924.677 448.388, 927.867 451.918 L 933.667 458.336 933.667 455.128 C 933.667 453.363, 933.338 452.453, 932.935 453.105 C 932.533 453.756, 931.883 450.437, 931.491 445.729 C 931.098 441.021, 931.122 436.611, 931.543 435.930 C 932.064 435.087, 931.898 434.945, 931.024 435.485 C 930.016 436.108, 929.833 434.989, 930.174 430.276 L 930.608 424.273 927.054 424.670 C 925.099 424.889, 922.713 425.235, 921.751 425.440 C 920.789 425.645, 919.810 425.502, 919.576 425.123 C 918.688 423.685, 896.594 424.076, 891.500 425.619 M 686.520 425.967 C 686.115 426.622, 686.698 428.117, 687.829 429.324 C 691.901 433.672, 692 435.227, 692 495.045 C 692 554.878, 691.492 562.658, 687.740 560.339 C 687.151 559.975, 686.986 560.168, 687.362 560.777 C 687.731 561.374, 687.013 562.620, 685.767 563.546 L 683.500 565.228 686 564.628 C 687.375 564.297, 696.341 564.021, 705.924 564.014 L 723.349 564 721.222 561.736 C 716.706 556.930, 716 553.188, 716 534.070 L 716 516.076 723.428 516.327 C 727.725 516.472, 730.619 516.192, 730.292 515.663 C 729.974 515.150, 731.289 514.932, 733.293 515.166 C 735.388 515.410, 736.618 515.191, 736.273 514.633 C 735.937 514.090, 736.608 513.926, 737.845 514.249 C 739.032 514.560, 739.751 514.405, 739.442 513.907 C 739.134 513.408, 739.495 513, 740.245 513 C 740.995 513, 743.834 511.560, 746.554 509.800 C 749.274 508.040, 751.871 506.701, 752.324 506.825 C 752.778 506.948, 752.895 506.639, 752.585 506.138 C 752.276 505.637, 752.685 504.676, 753.495 504.004 C 764.265 495.066, 767.762 459.978, 759.479 443.960 C 758.643 442.343, 757.869 440.679, 757.759 440.260 C 757.649 439.842, 756.307 438.446, 754.777 437.159 C 753.247 435.871, 752.254 434.398, 752.572 433.884 C 752.889 433.371, 752.778 433.033, 752.324 433.134 C 750.683 433.500, 748.027 431.765, 748.660 430.741 C 749.022 430.156, 748.833 429.985, 748.235 430.355 C 747.644 430.720, 746.562 430.452, 745.831 429.759 C 745.099 429.067, 743.938 428.455, 743.250 428.400 C 742.563 428.345, 740.848 428.233, 739.441 428.150 C 738.034 428.067, 737.091 427.663, 737.347 427.250 C 737.602 426.837, 726.752 426.628, 713.236 426.785 C 695.625 426.989, 688.461 426.746, 687.956 425.928 C 687.431 425.079, 687.063 425.090, 686.520 425.967 M 958.294 425.648 C 957.485 425.976, 958.085 427.515, 960.113 430.315 C 962.012 432.937, 962.981 435.320, 962.714 436.716 C 962.480 437.939, 962.674 438.702, 963.144 438.411 C 963.615 438.120, 964 463.262, 964 494.282 C 964 553.657, 963.754 557.300, 959.414 562.095 C 957.722 563.964, 958.228 564, 986.404 564 C 1005.292 564, 1014.907 564.342, 1014.500 565 C 1014.160 565.550, 1014.359 566, 1014.941 566 C 1015.523 566, 1016 565.550, 1016 565 C 1016 564.450, 1016.873 564, 1017.941 564 C 1019.009 564, 1020.160 564.450, 1020.500 565 C 1021.526 566.660, 1022.984 566.122, 1022.299 564.336 C 1021.832 563.120, 1022.021 562.895, 1023 563.500 C 1023.991 564.113, 1024.166 563.875, 1023.671 562.584 C 1022.687 560.020, 1024.060 549.919, 1025.289 550.679 C 1025.874 551.040, 1026.004 550.815, 1025.594 550.152 C 1024.600 548.544, 1026.011 539.889, 1027.152 540.594 C 1027.690 540.927, 1027.808 540.082, 1027.432 538.584 C 1027.026 536.969, 1027.199 536, 1027.892 536 C 1028.501 536, 1029 535.625, 1029 535.167 C 1029 534.708, 1028.325 534.333, 1027.500 534.333 C 1026.675 534.333, 1026.191 534.525, 1026.426 534.759 C 1027.270 535.603, 1021.692 540.929, 1020.609 540.312 C 1019.999 539.964, 1019.841 540.055, 1020.258 540.514 C 1021.212 541.565, 1015.969 545.099, 1014.658 544.289 C 1014.126 543.960, 1013.989 544.173, 1014.353 544.763 C 1015.186 546.110, 1005.636 549.400, 1002.938 548.694 C 1001.870 548.415, 1001.249 548.595, 1001.558 549.093 C 1001.874 549.605, 998.810 550, 994.520 550 L 986.923 550 987.211 492.750 C 987.524 430.795, 987.154 435.225, 992.693 427 C 993.669 425.551, 993.793 425.026, 992.988 425.750 C 991.236 427.328, 958.528 427.572, 959.500 426 C 960.166 424.923, 960.116 424.908, 958.294 425.648 M 769.392 429.500 C 773.280 432.893, 778.323 441.716, 777.540 443.755 C 777.256 444.497, 777.420 444.859, 777.905 444.559 C 779.025 443.866, 780.291 448.720, 779.376 450.200 C 778.999 450.810, 779.131 451.037, 779.670 450.704 C 780.684 450.077, 797.564 499.092, 797.421 502.250 C 797.377 503.212, 797.693 504, 798.124 504 C 800.027 504, 800.778 512.219, 800.516 530.176 C 800.159 554.707, 799.355 560.956, 796.765 559.355 C 796.157 558.979, 795.979 559.157, 796.355 559.765 C 796.720 560.356, 796.307 561.550, 795.438 562.419 C 793.997 563.860, 795.453 564, 811.898 564 L 829.940 564 827.400 560.257 C 825.901 558.049, 825.034 555.601, 825.285 554.287 C 825.520 553.063, 825.326 552.298, 824.856 552.589 C 824.385 552.880, 824 543.763, 824 532.329 L 824 511.540 829.203 495.336 C 832.064 486.424, 834.834 479.397, 835.357 479.721 C 835.881 480.044, 835.982 479.781, 835.583 479.135 C 834.645 477.617, 836.875 470.805, 838.069 471.543 C 838.569 471.851, 838.735 471.474, 838.440 470.703 C 837.459 468.147, 851.620 431, 853.576 431 C 853.874 431, 853.794 431.563, 853.399 432.250 C 853.003 432.938, 853.014 433.200, 853.423 432.833 C 853.832 432.467, 854.053 432.017, 853.914 431.833 C 853.776 431.650, 854.204 430.488, 854.866 429.250 L 856.070 427 839.535 427 C 830.441 427, 823 427.205, 823 427.455 C 823 427.705, 824.125 429.034, 825.500 430.409 C 827.878 432.787, 829.485 444.036, 827.250 442.655 C 826.837 442.400, 826.455 443.161, 826.400 444.345 C 826.214 448.353, 823.392 457.058, 822.533 456.276 C 822.063 455.849, 821.974 456.016, 822.335 456.647 C 823.188 458.140, 821.996 464.116, 820.972 463.482 C 820.540 463.216, 820.440 463.968, 820.751 465.155 C 821.171 466.762, 820.980 467.106, 820.003 466.502 C 819.171 465.988, 818.933 466.082, 819.352 466.761 C 820.226 468.175, 816.877 482.042, 815.819 481.388 C 815.369 481.110, 814.959 482.371, 814.909 484.191 C 814.797 488.232, 811.092 477.763, 810.718 472.351 C 810.598 470.619, 810.219 469.373, 809.876 469.582 C 808.903 470.175, 805.805 458.124, 806.600 456.837 C 807.010 456.176, 806.870 455.962, 806.270 456.333 C 805.664 456.708, 804.760 455.212, 804.099 452.738 C 803.477 450.407, 802.283 446.025, 801.447 443 C 799.838 437.180, 800.287 430.441, 802.205 431.627 C 802.913 432.064, 803.023 431.845, 802.511 431.017 C 802.004 430.198, 802.493 429.136, 803.849 428.113 C 805.837 426.612, 804.600 426.500, 785.970 426.500 L 765.954 426.500 769.392 429.500 M 1060 427.009 C 1060 427.290, 1060.944 428.108, 1062.097 428.829 C 1063.251 429.549, 1063.947 430.386, 1063.645 430.688 C 1063.343 430.991, 1063.807 431.949, 1064.676 432.819 C 1067.329 435.472, 1061.230 472.735, 1058.543 470.287 C 1058.068 469.854, 1058 470.058, 1058.392 470.739 C 1059.258 472.245, 1057.046 484.147, 1056.018 483.511 C 1055.617 483.263, 1055.514 484.239, 1055.789 485.679 C 1056.166 487.649, 1055.968 488.098, 1054.990 487.494 C 1054.099 486.943, 1053.933 487.083, 1054.462 487.939 C 1055.349 489.374, 1053.088 501.172, 1052.049 500.530 C 1051.671 500.297, 1051.566 501.496, 1051.815 503.195 C 1052.126 505.313, 1051.916 506.066, 1051.146 505.590 C 1050.432 505.149, 1050.237 505.454, 1050.610 506.426 C 1051.306 508.240, 1046.937 527.079, 1045.961 526.476 C 1045.591 526.247, 1045.501 527.172, 1045.761 528.530 C 1046.047 530.024, 1045.768 531, 1045.058 531 C 1044.411 531, 1044.164 531.457, 1044.509 532.015 C 1045.209 533.148, 1043.020 543.999, 1042.091 544.002 C 1041.766 544.004, 1041.447 545.446, 1041.383 547.208 C 1041.319 548.970, 1040.804 550.565, 1040.239 550.754 C 1039.674 550.942, 1039.460 552.045, 1039.764 553.204 C 1040.173 554.768, 1039.976 555.103, 1039.003 554.502 C 1038.112 553.951, 1037.931 554.080, 1038.440 554.903 C 1038.866 555.593, 1038.064 557.815, 1036.581 560.058 L 1033.972 564 1049.641 564 C 1065.077 564, 1065.284 563.971, 1063.557 562.063 C 1062.572 560.974, 1062.134 559.593, 1062.557 558.909 C 1063.021 558.157, 1062.891 557.949, 1062.219 558.365 C 1060.448 559.459, 1059.684 550.869, 1060.973 544.369 C 1063.022 534.044, 1061.392 535, 1076.937 535 L 1090.740 535 1091.905 540.922 C 1094.274 552.964, 1093.043 561.233, 1088.712 562.365 C 1083.765 563.659, 1088.932 564.163, 1105.919 564.046 C 1117.847 563.963, 1124 564.274, 1124 564.960 C 1124 565.532, 1124.450 566, 1125 566 C 1126.482 566, 1126.213 564.070, 1124.491 562.348 C 1123.661 561.518, 1123.280 560.356, 1123.645 559.765 C 1124.014 559.169, 1123.844 558.978, 1123.264 559.337 C 1121.939 560.156, 1118.647 553.361, 1119.408 551.378 C 1119.721 550.563, 1119.612 550.122, 1119.166 550.397 C 1117.994 551.121, 1107.635 504.402, 1108.479 502.198 C 1108.753 501.482, 1108.595 501.132, 1108.128 501.421 C 1107.211 501.987, 1102.744 482.548, 1102.592 477.333 C 1102.542 475.592, 1102.280 474.387, 1102.011 474.656 C 1101.570 475.097, 1100.291 469.779, 1095.436 447.324 C 1093.615 438.905, 1093.816 430.358, 1095.824 430.775 C 1096.553 430.926, 1096.883 430.619, 1096.558 430.094 C 1096.233 429.568, 1096.425 428.856, 1096.984 428.510 C 1099.677 426.845, 1096.587 426.500, 1079 426.500 C 1068.550 426.500, 1060 426.729, 1060 427.009 M 716 471 L 716 500 720.250 499.994 C 728.690 499.983, 737.531 495.287, 735.450 491.920 C 734.994 491.181, 735.105 490.947, 735.729 491.333 C 737.059 492.154, 739.438 486.518, 738.442 484.906 C 737.939 484.092, 738.110 483.950, 738.963 484.477 C 739.933 485.077, 740.144 484.303, 739.849 481.216 C 739.637 478.990, 739.809 477.382, 740.232 477.643 C 741.145 478.208, 741.242 464.100, 740.361 458.770 C 740.022 456.718, 739.357 455.279, 738.884 455.572 C 738.410 455.864, 738.275 455.446, 738.584 454.642 C 739.854 451.331, 732.360 442.264, 729.318 443.431 C 728.593 443.710, 728 443.501, 728 442.969 C 728 442.436, 725.300 442, 722 442 L 716 442 716 471 M 1075.620 471.518 C 1074.636 475.908, 1073.227 482.875, 1072.489 487 C 1071.752 491.125, 1070.215 499.414, 1069.074 505.419 C 1066.043 521.379, 1065.298 520, 1076.941 520 C 1082.409 520, 1087.118 519.618, 1087.406 519.152 C 1088.267 517.758, 1085.535 504.806, 1084.566 505.690 C 1084.061 506.151, 1084.011 505.926, 1084.449 505.168 C 1085.370 503.575, 1083.082 487.831, 1082.025 488.485 C 1081.620 488.735, 1081.451 487.941, 1081.649 486.720 C 1081.846 485.499, 1080.974 479.783, 1079.709 474.018 L 1077.410 463.537 1075.620 471.518 M 338 471.861 C 338 473.167, 326.411 479.067, 325.487 478.230 C 325.043 477.829, 325.003 478.063, 325.399 478.750 C 325.794 479.438, 325.661 480, 325.103 480 C 324.545 480, 322.440 481.119, 320.426 482.486 C 318.411 483.853, 316.366 484.726, 315.881 484.427 C 315.397 484.127, 315 484.385, 315 485 C 315 485.615, 314.550 485.840, 314 485.500 C 313.450 485.160, 313 485.365, 313 485.956 C 313 487.422, 306.878 491.043, 305.666 490.294 C 305.126 489.960, 305.009 490.206, 305.405 490.845 C 306.052 491.894, 304.806 492.464, 302.676 492.094 C 302.222 492.015, 302.184 492.488, 302.590 493.145 C 303.098 493.967, 302.793 494.134, 301.612 493.681 C 300.593 493.290, 300.144 493.424, 300.507 494.011 C 300.843 494.555, 300.704 495, 300.199 495 C 299.693 495, 297.678 496.087, 295.721 497.415 C 293.764 498.743, 291.901 499.643, 291.581 499.415 C 291.262 499.187, 291.176 499.251, 291.391 499.558 C 291.606 499.864, 290.467 501.552, 288.860 503.308 C 287.253 505.063, 285.431 508.188, 284.811 510.250 C 284.191 512.313, 283.417 514, 283.092 514 C 282.766 514, 282.500 517.782, 282.500 522.405 C 282.500 527.027, 282.898 530.563, 283.384 530.262 C 283.871 529.962, 284.065 531.106, 283.815 532.805 C 283.566 534.504, 283.676 535.700, 284.059 535.463 C 285.009 534.876, 286.154 540.942, 285.341 542.257 C 284.931 542.920, 285.180 543.007, 286.015 542.490 C 287.008 541.877, 287.159 542.144, 286.617 543.555 C 286.220 544.591, 286.209 545.124, 286.593 544.740 C 286.978 544.355, 288.342 546.114, 289.625 548.649 C 295.327 559.910, 304.623 568.555, 314.111 571.418 C 321.085 573.523, 327.342 571.885, 349 562.289 C 351.475 561.193, 355.816 559.274, 358.647 558.025 C 361.557 556.742, 364.341 556.092, 365.051 556.532 C 365.867 557.036, 366.058 556.904, 365.595 556.155 C 365.118 555.382, 365.853 555, 367.819 555 C 369.434 555, 371.373 554.239, 372.128 553.308 C 373.310 551.851, 373.294 551.740, 372.014 552.513 C 371.197 553.006, 369.138 553.289, 367.438 553.143 C 365.737 552.996, 361.948 553.788, 359.018 554.901 C 356.087 556.015, 353.309 556.691, 352.845 556.404 C 352.380 556.117, 352 556.304, 352 556.820 C 352 557.335, 350.538 558.306, 348.750 558.977 C 346.962 559.648, 343.792 561.093, 341.705 562.188 C 339.617 563.283, 337.231 563.919, 336.403 563.601 C 335.574 563.283, 335.135 563.410, 335.428 563.883 C 336.361 565.393, 326.764 568.333, 320.902 568.333 C 308.654 568.333, 297.332 556.470, 291.095 537.101 C 289.769 532.983, 289.755 532.731, 290.902 533.439 C 291.397 533.746, 291.172 531.901, 290.402 529.339 C 288.742 523.826, 288.564 513.283, 290.064 509.315 C 291.364 505.873, 295.982 500.871, 297.178 501.610 C 297.657 501.906, 297.926 501.640, 297.775 501.019 C 297.423 499.570, 315.895 488.817, 317.273 489.669 C 317.873 490.039, 318.008 489.823, 317.595 489.155 C 317.203 488.520, 317.359 488, 317.941 488 C 320.001 488, 320.514 487.711, 321.854 485.798 C 322.598 484.735, 323.859 484.116, 324.656 484.421 C 325.452 484.727, 325.868 484.596, 325.581 484.131 C 325.293 483.665, 326.725 482.433, 328.763 481.392 C 330.802 480.351, 333.097 478.912, 333.864 478.192 C 334.630 477.473, 335.860 477.116, 336.597 477.399 C 338.134 477.989, 338.474 477.544, 339.381 473.750 C 339.771 472.119, 339.623 471, 339.019 471 C 338.459 471, 338 471.387, 338 471.861 M 334.405 483.155 C 333.934 483.916, 334.169 484.057, 335.095 483.568 C 335.868 483.160, 335.375 483.755, 334 484.891 C 331.571 486.897, 330.380 487.390, 328.676 487.094 C 328.222 487.015, 328.074 487.311, 328.347 487.752 C 328.619 488.193, 327.507 489.320, 325.874 490.257 C 324.118 491.265, 323.189 491.459, 323.600 490.730 C 323.982 490.054, 323.301 490.522, 322.087 491.772 C 320.874 493.022, 319.505 493.812, 319.045 493.528 C 318.586 493.244, 317.941 493.712, 317.612 494.569 C 317.283 495.426, 316.561 495.847, 316.007 495.504 C 315.453 495.162, 315 495.262, 315 495.725 C 315 496.189, 313.650 497.366, 312 498.341 C 310.350 499.316, 309 499.863, 309 499.557 C 309 499.250, 308.084 499.916, 306.964 501.036 C 305.843 502.157, 304.493 502.805, 303.964 502.477 C 303.434 502.150, 303 502.385, 303 503 C 303 503.615, 302.480 503.797, 301.845 503.405 C 301.149 502.974, 300.962 503.129, 301.373 503.795 C 301.749 504.403, 301.143 505.388, 300.028 505.985 C 298.913 506.582, 297.981 506.717, 297.958 506.285 C 297.848 504.228, 294.064 512.877, 293.926 515.500 C 293.833 517.261, 293.578 517.772, 293.308 516.738 C 293.055 515.769, 292.460 515.216, 291.984 515.510 C 291.509 515.804, 291.594 517.407, 292.175 519.072 C 292.755 520.737, 292.965 523.427, 292.640 525.050 C 292.291 526.795, 292.472 528, 293.084 528 C 293.653 528, 293.869 528.403, 293.564 528.896 C 293.260 529.389, 293.660 531.044, 294.454 532.574 C 295.248 534.105, 295.669 535.726, 295.390 536.178 C 295.110 536.630, 295.359 537, 295.941 537 C 296.523 537, 297 537.638, 297 538.418 C 297 542.544, 306.108 556, 308.901 556 C 310.369 556, 310.292 555.423, 308.395 552.215 C 306.917 549.716, 306.917 549.655, 308.401 551.450 C 311.003 554.597, 314.988 554.664, 314.424 551.552 C 314.051 549.495, 314.283 549.169, 315.735 549.713 C 317.228 550.272, 317.305 550.135, 316.238 548.820 C 315.205 547.548, 315.270 547.021, 316.596 545.920 C 317.978 544.773, 318.421 544.855, 319.608 546.479 C 320.973 548.345, 321.001 548.345, 321.063 546.441 C 321.118 544.759, 321.251 544.809, 322.055 546.814 C 322.565 548.087, 323.417 548.860, 323.948 548.532 C 324.478 548.204, 324.639 547.223, 324.305 546.352 C 323.790 545.010, 324.026 544.944, 325.848 545.919 C 327.456 546.779, 328 546.782, 328 545.928 C 328 545.300, 328.638 545.031, 329.417 545.330 C 330.197 545.629, 331.092 545.204, 331.406 544.385 C 331.728 543.545, 331.546 543.162, 330.989 543.507 C 330.445 543.843, 330 543.674, 330 543.132 C 330 542.590, 329.212 541.918, 328.250 541.638 C 327.288 541.358, 327.850 541.212, 329.500 541.314 C 332.080 541.474, 332.456 541.185, 332.187 539.250 C 332.015 538.013, 332.353 537, 332.937 537 C 333.522 537, 334 537.661, 334 538.469 C 334 539.363, 334.586 539.712, 335.500 539.362 C 336.349 539.036, 337 539.338, 337 540.060 C 337 540.760, 337.238 541.096, 337.528 540.805 C 338.373 539.960, 336.065 534.618, 334.264 533.250 C 333.341 532.549, 333.137 532, 333.800 532 C 334.451 532, 335.545 532.900, 336.232 534 C 336.919 535.100, 338.048 536, 338.741 536 C 339.433 536, 340 536.375, 340 536.833 C 340 537.292, 340.675 537.667, 341.500 537.667 C 343.753 537.667, 343.310 536.032, 340.447 533.780 C 339.043 532.676, 338.145 531.522, 338.451 531.215 C 338.757 530.909, 340.131 531.714, 341.504 533.004 C 342.877 534.293, 344 534.862, 344 534.268 C 344 533.668, 345 533.407, 346.250 533.680 C 347.578 533.971, 348.050 533.831, 347.401 533.337 C 346.797 532.877, 346.309 531.626, 346.318 530.558 C 346.332 528.748, 346.432 528.765, 347.789 530.808 C 350.540 534.952, 350.902 532.995, 348.308 527.997 C 346.881 525.245, 345.665 521.689, 345.606 520.095 C 345.548 518.501, 345.092 517.448, 344.592 517.755 C 344.093 518.062, 343.939 517.342, 344.249 516.155 C 344.560 514.968, 344.503 514.189, 344.123 514.424 C 343.138 515.033, 339.658 502.363, 340.456 501.072 C 340.820 500.482, 340.594 500, 339.954 500 C 339.199 500, 338.924 498.594, 339.171 496 C 339.381 493.800, 339.151 492, 338.660 492 C 338.169 492, 337.982 490.875, 338.245 489.500 C 338.508 488.125, 338.397 487, 337.999 487 C 337.601 487, 337.399 485.875, 337.549 484.500 C 337.836 481.891, 335.740 480.994, 334.405 483.155 M 278 524.941 C 278 525.523, 277.386 526, 276.635 526 C 275.884 526, 274.144 526.885, 272.769 527.967 C 271.393 529.049, 269.983 529.649, 269.634 529.301 C 269.285 528.952, 269 529.218, 269 529.892 C 269 530.566, 268.550 530.840, 268 530.500 C 267.450 530.160, 267 530.385, 267 531 C 267 531.615, 266.597 531.869, 266.105 531.565 C 265.612 531.260, 264.934 531.731, 264.596 532.609 C 264.236 533.550, 263.348 533.964, 262.440 533.615 C 261.582 533.286, 261.160 533.449, 261.489 533.982 C 261.815 534.510, 260.838 535.254, 259.318 535.635 C 257.798 536.017, 255.867 537.063, 255.027 537.961 C 253.846 539.225, 253.726 539.244, 254.500 538.047 C 255.370 536.701, 255.274 536.678, 253.761 537.863 C 252.805 538.613, 252.249 539.595, 252.527 540.044 C 252.805 540.494, 252.568 541.149, 252 541.500 C 251.432 541.851, 251.286 542.670, 251.676 543.319 C 252.085 544.002, 251.674 543.925, 250.703 543.137 C 249.778 542.387, 249.296 541.329, 249.632 540.787 C 249.967 540.244, 249.245 540.334, 248.027 540.986 C 243.821 543.236, 242.023 549.500, 243.141 558 C 243.684 562.125, 244.195 566.266, 244.278 567.202 C 244.361 568.139, 244.625 568.708, 244.865 568.468 C 245.374 567.960, 247.921 571.114, 247.968 572.309 C 247.986 572.754, 247.480 572.797, 246.845 572.405 C 246.124 571.959, 245.963 572.131, 246.415 572.862 C 246.813 573.506, 247.491 573.814, 247.923 573.548 C 248.354 573.281, 249.225 574.199, 249.858 575.588 C 250.491 576.977, 251.457 577.836, 252.004 577.497 C 252.552 577.159, 253 577.250, 253 577.700 C 253 578.151, 253.884 579.071, 254.965 579.746 C 257.728 581.472, 252.863 572.234, 249.712 569.772 C 248.495 568.822, 247.907 568.034, 248.405 568.022 C 248.903 568.010, 248.454 567.054, 247.408 565.898 C 244.764 562.977, 244.021 549.057, 246.403 547.080 C 247.281 546.351, 248 545.109, 248 544.319 C 248 543.528, 248.375 543.114, 248.833 543.397 C 249.292 543.680, 249.466 545.277, 249.221 546.946 C 248.976 548.614, 248.376 549.733, 247.888 549.431 C 247.400 549.129, 247.007 551.271, 247.015 554.191 C 247.025 557.440, 247.356 558.987, 247.869 558.177 C 248.421 557.306, 248.927 558.448, 249.347 561.516 C 249.824 564.996, 250.998 567.326, 253.977 570.711 C 256.171 573.204, 257.676 575.716, 257.320 576.292 C 256.919 576.940, 257.306 577.096, 258.336 576.701 C 259.251 576.350, 260 576.499, 260 577.031 C 260 577.564, 260.477 578, 261.059 578 C 261.641 578, 261.849 577.565, 261.520 577.033 C 261.191 576.501, 261.840 575.492, 262.961 574.792 C 264.083 574.092, 265 572.952, 265 572.259 C 265 571.567, 265.470 571, 266.044 571 C 266.618 571, 266.955 570.259, 266.794 569.354 C 266.632 568.448, 267.077 567.506, 267.781 567.260 C 268.486 567.014, 268.936 567.260, 268.781 567.806 C 268.627 568.353, 268.950 568.732, 269.500 568.650 C 270.050 568.567, 270.482 567.487, 270.461 566.250 C 270.439 565.013, 270.889 563.931, 271.461 563.848 C 272.032 563.764, 272.950 563.591, 273.500 563.463 C 274.050 563.335, 275.089 563.179, 275.809 563.115 C 276.529 563.052, 276.810 562.502, 276.434 561.893 C 275.945 561.102, 275.536 561.133, 275 562 C 274.505 562.801, 274.032 562.861, 273.610 562.179 C 272.775 560.827, 276.206 559.758, 278.523 560.647 C 279.765 561.124, 280.103 560.975, 279.605 560.170 C 278.527 558.425, 280.070 558.757, 282.304 560.750 C 284.204 562.445, 284.244 562.422, 283.581 560 C 282.867 557.391, 285.284 559.497, 286.327 562.392 C 286.547 563.001, 287.013 563.238, 287.363 562.917 C 287.970 562.361, 283.842 551.078, 279.869 542.434 C 277.852 538.048, 277.200 533.215, 279 536 C 279.533 536.825, 279.969 537.050, 279.969 536.500 C 279.969 534.563, 277.892 532.390, 277.341 533.750 C 277.062 534.438, 275.944 535, 274.858 535 C 273.771 535, 273.131 535.403, 273.435 535.895 C 274.143 537.041, 271.162 538.218, 269.755 537.349 C 269.170 536.987, 268.980 537.158, 269.333 537.729 C 269.945 538.721, 267.431 540.038, 262 541.572 C 260.625 541.960, 258.463 543.390, 257.195 544.750 C 255.927 546.110, 254.577 546.911, 254.196 546.530 C 253.815 546.148, 254.217 545.311, 255.089 544.668 C 255.962 544.026, 256.503 542.987, 256.291 542.360 C 255.914 541.241, 261.835 536.994, 264.271 536.636 C 264.955 536.536, 266.623 535.677, 267.979 534.727 C 269.335 533.777, 270.856 533, 271.358 533 C 271.860 533, 273.239 531.955, 274.422 530.679 C 275.605 529.402, 277.182 528.561, 277.926 528.809 C 278.799 529.100, 279.006 528.819, 278.511 528.018 C 278.085 527.328, 278.293 526.437, 278.979 526.013 C 279.857 525.470, 279.894 525.053, 279.107 524.566 C 278.498 524.190, 278 524.359, 278 524.941 M 248.846 532.884 C 249.663 533.401, 247.730 533.690, 243.934 533.618 C 235.687 533.462, 228 540.784, 228 548.794 C 228 550.072, 227.662 550.911, 227.250 550.658 C 226.838 550.405, 226.500 552.854, 226.500 556.100 C 226.500 559.345, 226.739 562.001, 227.032 562 C 227.324 562, 227.670 563.013, 227.800 564.250 C 227.930 565.487, 228.141 567.400, 228.268 568.500 C 228.396 569.600, 229.088 571.121, 229.808 571.879 C 230.527 572.637, 230.869 573.898, 230.569 574.681 C 230.269 575.464, 230.421 575.858, 230.907 575.558 C 232.043 574.855, 233.213 577.846, 232.349 579.245 C 231.961 579.872, 232.165 580.016, 232.845 579.595 C 233.894 578.948, 234.464 580.194, 234.094 582.324 C 234.015 582.778, 234.412 582.864, 234.975 582.515 C 235.912 581.936, 236.448 583.282, 236.094 585.324 C 236.015 585.778, 236.361 585.895, 236.862 585.585 C 237.823 584.991, 239.790 586.846, 239.887 588.437 C 239.919 588.953, 240.655 589.479, 241.522 589.606 C 243.858 589.949, 246.071 592.075, 245.334 593.268 C 244.981 593.840, 245.144 594.029, 245.698 593.687 C 246.251 593.345, 248.441 593.950, 250.564 595.032 C 255.394 597.495, 265.307 597.661, 271.021 595.375 C 276.670 593.115, 275.521 591.625, 267.975 591.425 C 264.461 591.332, 261.438 590.814, 261.258 590.273 C 261.078 589.733, 259.805 589.506, 258.430 589.769 C 255.683 590.294, 251.618 587.427, 252.678 585.712 C 253.025 585.150, 252.863 584.967, 252.317 585.304 C 249.722 586.908, 244.958 580.589, 240.780 570.002 C 238.714 564.768, 237.181 551.581, 238.919 554 C 239.743 555.146, 239.854 554.755, 239.392 552.340 C 238.540 547.897, 240.447 542.928, 244.519 538.982 C 246.433 537.126, 248 535.921, 248 536.304 C 248 536.687, 248.812 536.212, 249.805 535.250 C 251.550 533.558, 250.931 532.031, 248.500 532.031 C 247.950 532.031, 248.106 532.415, 248.846 532.884" stroke="none" fill="#ceaa4b" fill-rule="evenodd"/></svg>